<?xml version="1.0" encoding="UTF-8"?>
<svg id="Layer_1" xmlns="http://www.w3.org/2000/svg" viewBox="0 0 3818 2492.48">
  <polygon points="252 587.08 252 609.39 271 620.48 290 609.39 290 587.08 271 576 252 587.08"/>
  <polygon points="353 609.39 353 587.08 334 576 315 587.08 315 609.39 334 620.48 353 609.39"/>
  <polygon points="416 609.39 416 587.08 397 576 378 587.08 378 609.39 397 620.48 416 609.39"/>
  <polygon points="441 609.39 460 620.48 479 609.39 479 587.08 460 576 441 587.08 441 609.39"/>
  <polygon points="290 659.08 271 648 252 659.08 252 681.39 271 692.48 290 681.39 290 659.08"/>
  <polygon points="315 681.39 334 692.48 353 681.39 353 659.08 334 648 315 659.08 315 681.39"/>
  <polygon points="378 681.39 397 692.48 416 681.39 416 659.08 397 648 378 659.08 378 681.39"/>
  <polygon points="441 681.39 460 692.48 479 681.39 479 659.08 460 648 441 659.08 441 681.39"/>
  <polygon points="252 731.08 252 753.39 271 764.48 290 753.39 290 731.08 271 720 252 731.08"/>
  <polygon points="353 753.39 353 731.08 334 720 315 731.08 315 753.39 334 764.48 353 753.39"/>
  <polygon points="378 753.39 397 764.48 416 753.39 416 731.08 397 720 378 731.08 378 753.39"/>
  <polygon points="441 753.39 460 764.48 479 753.39 479 731.08 460 720 441 731.08 441 753.39"/>
  <polygon points="290 537.39 290 515.08 271 504 252 515.08 252 537.39 271 548.48 290 537.39"/>
  <polygon points="353 825.39 353 803.08 334 792 315 803.08 315 825.39 334 836.48 353 825.39"/>
  <polygon points="416 825.39 416 803.08 397 792 378 803.08 378 825.39 397 836.48 416 825.39"/>
  <polygon points="479 825.39 479 803.08 460 792 441 803.08 441 825.39 460 836.48 479 825.39"/>
  <polygon points="164 537.39 164 515.08 145 504 126 515.08 126 537.39 145 548.48 164 537.39"/>
  <polygon points="227 537.39 227 515.08 208 504 189 515.08 189 537.39 208 548.48 227 537.39"/>
  <polygon points="101 609.39 101 587.08 82 576 63 587.08 63 609.39 82 620.48 101 609.39"/>
  <polygon points="164 609.39 164 587.08 145 576 126 587.08 126 609.39 145 620.48 164 609.39"/>
  <polygon points="189 609.39 208 620.48 227 609.39 227 587.08 208 576 189 587.08 189 609.39"/>
  <polygon points="101 681.39 101 659.08 82 648 63 659.08 63 681.39 82 692.48 101 681.39"/>
  <polygon points="164 659.08 145 648 126 659.08 126 681.39 145 692.48 164 681.39 164 659.08"/>
  <polygon points="227 659.08 208 648 189 659.08 189 681.39 208 692.48 227 681.39 227 659.08"/>
  <polygon points="63 731.08 63 753.39 82 764.48 101 753.39 101 731.08 82 720 63 731.08"/>
  <polygon points="126 731.08 126 753.39 145 764.48 164 753.39 164 731.08 145 720 126 731.08"/>
  <polygon points="189 731.08 189 753.39 208 764.48 227 753.39 227 731.08 208 720 189 731.08"/>
  <polygon points="0 803.08 0 825.39 19 836.48 38 825.39 38 803.08 19 792 0 803.08"/>
  <polygon points="63 803.08 63 825.39 82 836.48 101 825.39 101 803.08 82 792 63 803.08"/>
  <polygon points="504 609.39 523 620.48 542 609.39 542 587.08 523 576 504 587.08 504 609.39"/>
  <polygon points="567 587.08 567 609.39 586 620.48 605 609.39 605 587.08 586 576 567 587.08"/>
  <polygon points="504 681.39 523 692.48 542 681.39 542 659.08 523 648 504 659.08 504 681.39"/>
  <polygon points="567 681.39 586 692.48 605 681.39 605 659.08 586 648 567 659.08 567 681.39"/>
  <polygon points="504 753.39 523 764.48 542 753.39 542 731.08 523 720 504 731.08 504 753.39"/>
  <polygon points="567 753.39 586 764.48 605 753.39 605 731.08 586 720 567 731.08 567 753.39"/>
  <polygon points="504 825.39 523 836.48 542 825.39 542 803.08 523 792 504 803.08 504 825.39"/>
  <polygon points="567 825.39 586 836.48 605 825.39 605 803.08 586 792 567 803.08 567 825.39"/>
  <polygon points="416 537.39 416 515.08 397 504 378 515.08 378 537.39 397 548.48 416 537.39"/>
  <polygon points="479 537.39 479 515.08 460 504 441 515.08 441 537.39 460 548.48 479 537.39"/>
  <polygon points="542 537.39 542 515.08 523 504 504 515.08 504 537.39 523 548.48 542 537.39"/>
  <polygon points="315 875.08 315 897.39 334 908.48 353 897.39 353 875.08 334 864 315 875.08"/>
  <polygon points="416 897.39 416 875.08 397 864 378 875.08 378 897.39 397 908.48 416 897.39"/>
  <polygon points="479 897.39 479 875.08 460 864 441 875.08 441 897.39 460 908.48 479 897.39"/>
  <polygon points="542 897.39 542 875.08 523 864 504 875.08 504 897.39 523 908.48 542 897.39"/>
  <polygon points="567 897.39 586 908.48 605 897.39 605 875.08 586 864 567 875.08 567 897.39"/>
  <polygon points="416 969.39 416 947.08 397 936 378 947.08 378 969.39 397 980.48 416 969.39"/>
  <polygon points="441 969.39 460 980.48 479 969.39 479 947.08 460 936 441 947.08 441 969.39"/>
  <polygon points="504 969.39 523 980.48 542 969.39 542 947.08 523 936 504 947.08 504 969.39"/>
  <polygon points="567 969.39 586 980.48 605 969.39 605 947.08 586 936 567 947.08 567 969.39"/>
  <polygon points="630 609.39 649 620.48 668 609.39 668 587.08 649 576 630 587.08 630 609.39"/>
  <polygon points="630 681.39 649 692.48 668 681.39 668 659.08 649 648 630 659.08 630 681.39"/>
  <polygon points="630 753.39 649 764.48 668 753.39 668 731.08 649 720 630 731.08 630 753.39"/>
  <polygon points="630 825.39 649 836.48 668 825.39 668 803.08 649 792 630 803.08 630 825.39"/>
  <polygon points="630 537.39 649 548.48 668 537.39 668 515.08 649 504 630 515.08 630 537.39"/>
  <polygon points="630 897.39 649 908.48 668 897.39 668 875.08 649 864 630 875.08 630 897.39"/>
  <polygon points="668 947.08 649 936 630 947.08 630 969.39 649 980.48 668 969.39 668 947.08"/>
  <polygon points="693 587.08 693 609.39 712 620.48 731 609.39 731 587.08 712 576 693 587.08"/>
  <polygon points="693 659.08 693 681.39 712 692.48 731 681.39 731 659.08 712 648 693 659.08"/>
  <polygon points="693 731.08 693 753.39 712 764.48 731 753.39 731 731.08 712 720 693 731.08"/>
  <polygon points="693 803.08 693 825.39 712 836.48 731 825.39 731 803.08 712 792 693 803.08"/>
  <polygon points="693 515.08 693 537.39 712 548.48 731 537.39 731 515.08 712 504 693 515.08"/>
  <polygon points="731 875.08 712 864 693 875.08 693 897.39 712 908.48 731 897.39 731 875.08"/>
  <polygon points="693 947.08 693 969.39 712 980.48 731 969.39 731 947.08 712 936 693 947.08"/>
  <polygon points="794 609.39 794 587.08 775 576 756 587.08 756 609.39 775 620.48 794 609.39"/>
  <polygon points="756 681.39 775 692.48 794 681.39 794 659.08 775 648 756 659.08 756 681.39"/>
  <polygon points="756 753.39 775 764.48 794 753.39 794 731.08 775 720 756 731.08 756 753.39"/>
  <polygon points="794 803.08 775 792 756 803.08 756 825.39 775 836.48 794 825.39 794 803.08"/>
  <polygon points="794 875.08 775 864 756 875.08 756 897.39 775 908.48 794 897.39 794 875.08"/>
  <polygon points="756 947.08 756 969.39 775 980.48 794 969.39 794 947.08 775 936 756 947.08"/>
  <polygon points="857 609.39 857 587.08 838 576 819 587.08 819 609.39 838 620.48 857 609.39"/>
  <polygon points="819 659.08 819 681.39 838 692.48 857 681.39 857 659.08 838 648 819 659.08"/>
  <polygon points="819 731.08 819 753.39 838 764.48 857 753.39 857 731.08 838 720 819 731.08"/>
  <polygon points="819 803.08 819 825.39 838 836.48 857 825.39 857 803.08 838 792 819 803.08"/>
  <polygon points="857 537.39 857 515.08 838 504 819 515.08 819 537.39 838 548.48 857 537.39"/>
  <polygon points="819 875.08 819 897.39 838 908.48 857 897.39 857 875.08 838 864 819 875.08"/>
  <polygon points="819 947.08 819 969.39 838 980.48 857 969.39 857 947.08 838 936 819 947.08"/>
  <polygon points="542 465.39 542 443.08 523 432 504 443.08 504 465.39 523 476.48 542 465.39"/>
  <polygon points="605 465.39 605 443.08 586 432 567 443.08 567 465.39 586 476.48 605 465.39"/>
  <polygon points="668 465.39 668 443.08 649 432 630 443.08 630 465.39 649 476.48 668 465.39"/>
  <polygon points="668 393.39 668 371.08 649 360 630 371.08 630 393.39 649 404.48 668 393.39"/>
  <polygon points="693 443.08 693 465.39 712 476.48 731 465.39 731 443.08 712 432 693 443.08"/>
  <polygon points="857 465.39 857 443.08 838 432 819 443.08 819 465.39 838 476.48 857 465.39"/>
  <polygon points="920 465.39 920 443.08 901 432 882 443.08 882 465.39 901 476.48 920 465.39"/>
  <polygon points="945 443.08 945 465.39 964 476.48 983 465.39 983 443.08 964 432 945 443.08"/>
  <polygon points="920 393.39 920 371.08 901 360 882 371.08 882 393.39 901 404.48 920 393.39"/>
  <polygon points="983 393.39 983 371.08 964 360 945 371.08 945 393.39 964 404.48 983 393.39"/>
  <polygon points="882 659.08 882 681.39 901 692.48 920 681.39 920 659.08 901 648 882 659.08"/>
  <polygon points="920 609.39 920 587.08 901 576 882 587.08 882 609.39 901 620.48 920 609.39"/>
  <polygon points="920 969.39 920 947.08 901 936 882 947.08 882 969.39 901 980.48 920 969.39"/>
  <polygon points="983 969.39 983 947.08 964 936 945 947.08 945 969.39 964 980.48 983 969.39"/>
  <polygon points="983 897.39 983 875.08 964 864 945 875.08 945 897.39 964 908.48 983 897.39"/>
  <polygon points="1046 897.39 1046 875.08 1027 864 1008 875.08 1008 897.39 1027 908.48 1046 897.39"/>
  <polygon points="1046 825.39 1046 803.08 1027 792 1008 803.08 1008 825.39 1027 836.48 1046 825.39"/>
  <polygon points="1109 609.39 1109 587.08 1090 576 1071 587.08 1071 609.39 1090 620.48 1109 609.39"/>
  <polygon points="1071 875.08 1071 897.39 1090 908.48 1109 897.39 1109 875.08 1090 864 1071 875.08"/>
  <polygon points="1071 947.08 1071 969.39 1090 980.48 1109 969.39 1109 947.08 1090 936 1071 947.08"/>
  <polygon points="1008 947.08 1008 969.39 1027 980.48 1046 969.39 1046 947.08 1027 936 1008 947.08"/>
  <polygon points="1008 1019.08 1008 1041.39 1027 1052.48 1046 1041.39 1046 1019.08 1027 1008 1008 1019.08"/>
  <polygon points="1134 947.08 1134 969.39 1153 980.48 1172 969.39 1172 947.08 1153 936 1134 947.08"/>
  <polygon points="1134 1019.08 1134 1041.39 1153 1052.48 1172 1041.39 1172 1019.08 1153 1008 1134 1019.08"/>
  <polygon points="1046 753.39 1046 731.08 1027 720 1008 731.08 1008 753.39 1027 764.48 1046 753.39"/>
  <polygon points="1046 681.39 1046 659.08 1027 648 1008 659.08 1008 681.39 1027 692.48 1046 681.39"/>
  <polygon points="1109 681.39 1109 659.08 1090 648 1071 659.08 1071 681.39 1090 692.48 1109 681.39"/>
  <polygon points="945 1019.08 945 1041.39 964 1052.48 983 1041.39 983 1019.08 964 1008 945 1019.08"/>
  <polygon points="1008 299.08 1008 321.39 1027 332.48 1046 321.39 1046 299.08 1027 288 1008 299.08"/>
  <polygon points="1008 515.08 1008 537.39 1027 548.48 1046 537.39 1046 515.08 1027 504 1008 515.08"/>
  <polygon points="983 249.39 983 227.08 964 216 945 227.08 945 249.39 964 260.48 983 249.39"/>
  <polygon points="1008 227.08 1008 249.39 1027 260.48 1046 249.39 1046 227.08 1027 216 1008 227.08"/>
  <polygon points="920 249.39 920 227.08 901 216 882 227.08 882 249.39 901 260.48 920 249.39"/>
  <polygon points="945 1091.08 945 1113.39 964 1124.48 983 1113.39 983 1091.08 964 1080 945 1091.08"/>
  <polygon points="1172 177.39 1172 155.08 1153 144 1134 155.08 1134 177.39 1153 188.48 1172 177.39"/>
  <polygon points="1172 249.39 1172 227.08 1153 216 1134 227.08 1134 249.39 1153 260.48 1172 249.39"/>
  <polygon points="1197 249.39 1216 260.48 1235 249.39 1235 227.08 1216 216 1197 227.08 1197 249.39"/>
  <polygon points="1298 249.39 1298 227.08 1279 216 1260 227.08 1260 249.39 1279 260.48 1298 249.39"/>
  <polygon points="1323 249.39 1342 260.48 1361 249.39 1361 227.08 1342 216 1323 227.08 1323 249.39"/>
  <polygon points="1386 227.08 1386 249.39 1405 260.48 1424 249.39 1424 227.08 1405 216 1386 227.08"/>
  <polygon points="1449 227.08 1449 249.39 1468 260.48 1487 249.39 1487 227.08 1468 216 1449 227.08"/>
  <polygon points="1235 177.39 1235 155.08 1216 144 1197 155.08 1197 177.39 1216 188.48 1235 177.39"/>
  <polygon points="1260 177.39 1279 188.48 1298 177.39 1298 155.08 1279 144 1260 155.08 1260 177.39"/>
  <polygon points="1323 177.39 1342 188.48 1361 177.39 1361 155.08 1342 144 1323 155.08 1323 177.39"/>
  <polygon points="1386 155.08 1386 177.39 1405 188.48 1424 177.39 1424 155.08 1405 144 1386 155.08"/>
  <polygon points="1487 177.39 1487 155.08 1468 144 1449 155.08 1449 177.39 1468 188.48 1487 177.39"/>
  <polygon points="1235 105.39 1235 83.08 1216 72 1197 83.08 1197 105.39 1216 116.48 1235 105.39"/>
  <polygon points="1260 105.39 1279 116.48 1298 105.39 1298 83.08 1279 72 1260 83.08 1260 105.39"/>
  <polygon points="1323 105.39 1342 116.48 1361 105.39 1361 83.08 1342 72 1323 83.08 1323 105.39"/>
  <polygon points="1386 83.08 1386 105.39 1405 116.48 1424 105.39 1424 83.08 1405 72 1386 83.08"/>
  <polygon points="1235 33.39 1235 11.08 1216 0 1197 11.08 1197 33.39 1216 44.48 1235 33.39"/>
  <polygon points="1298 33.39 1298 11.08 1279 0 1260 11.08 1260 33.39 1279 44.48 1298 33.39"/>
  <polygon points="1361 33.39 1361 11.08 1342 0 1323 11.08 1323 33.39 1342 44.48 1361 33.39"/>
  <polygon points="1424 33.39 1424 11.08 1405 0 1386 11.08 1386 33.39 1405 44.48 1424 33.39"/>
  <polygon points="1361 321.39 1361 299.08 1342 288 1323 299.08 1323 321.39 1342 332.48 1361 321.39"/>
  <polygon points="1424 299.08 1405 288 1386 299.08 1386 321.39 1405 332.48 1424 321.39 1424 299.08"/>
  <polygon points="1487 299.08 1468 288 1449 299.08 1449 321.39 1468 332.48 1487 321.39 1487 299.08"/>
  <polygon points="1512 299.08 1512 321.39 1531 332.48 1550 321.39 1550 299.08 1531 288 1512 299.08"/>
  <polygon points="1550 249.39 1550 227.08 1531 216 1512 227.08 1512 249.39 1531 260.48 1550 249.39"/>
  <polygon points="1298 321.39 1298 299.08 1279 288 1260 299.08 1260 321.39 1279 332.48 1298 321.39"/>
  <polygon points="1235 321.39 1235 299.08 1216 288 1197 299.08 1197 321.39 1216 332.48 1235 321.39"/>
  <polygon points="1134 299.08 1134 321.39 1153 332.48 1172 321.39 1172 299.08 1153 288 1134 299.08"/>
  <polygon points="1197 371.08 1197 393.39 1216 404.48 1235 393.39 1235 371.08 1216 360 1197 371.08"/>
  <polygon points="1298 393.39 1298 371.08 1279 360 1260 371.08 1260 393.39 1279 404.48 1298 393.39"/>
  <polygon points="1361 393.39 1361 371.08 1342 360 1323 371.08 1323 393.39 1342 404.48 1361 393.39"/>
  <polygon points="1424 371.08 1405 360 1386 371.08 1386 393.39 1405 404.48 1424 393.39 1424 371.08"/>
  <polygon points="1449 371.08 1449 393.39 1468 404.48 1487 393.39 1487 371.08 1468 360 1449 371.08"/>
  <polygon points="1512 371.08 1512 393.39 1531 404.48 1550 393.39 1550 371.08 1531 360 1512 371.08"/>
  <polygon points="1449 443.08 1449 465.39 1468 476.48 1487 465.39 1487 443.08 1468 432 1449 443.08"/>
  <polygon points="1449 515.08 1449 537.39 1468 548.48 1487 537.39 1487 515.08 1468 504 1449 515.08"/>
  <polygon points="1424 443.08 1405 432 1386 443.08 1386 465.39 1405 476.48 1424 465.39 1424 443.08"/>
  <polygon points="1386 515.08 1386 537.39 1405 548.48 1424 537.39 1424 515.08 1405 504 1386 515.08"/>
  <polygon points="1386 587.08 1386 609.39 1405 620.48 1424 609.39 1424 587.08 1405 576 1386 587.08"/>
  <polygon points="1361 443.08 1342 432 1323 443.08 1323 465.39 1342 476.48 1361 465.39 1361 443.08"/>
  <polygon points="1361 515.08 1342 504 1323 515.08 1323 537.39 1342 548.48 1361 537.39 1361 515.08"/>
  <polygon points="1323 587.08 1323 609.39 1342 620.48 1361 609.39 1361 587.08 1342 576 1323 587.08"/>
  <polygon points="1323 659.08 1323 681.39 1342 692.48 1361 681.39 1361 659.08 1342 648 1323 659.08"/>
  <polygon points="1298 465.39 1298 443.08 1279 432 1260 443.08 1260 465.39 1279 476.48 1298 465.39"/>
  <polygon points="1298 537.39 1298 515.08 1279 504 1260 515.08 1260 537.39 1279 548.48 1298 537.39"/>
  <polygon points="1298 609.39 1298 587.08 1279 576 1260 587.08 1260 609.39 1279 620.48 1298 609.39"/>
  <polygon points="1260 659.08 1260 681.39 1279 692.48 1298 681.39 1298 659.08 1279 648 1260 659.08"/>
  <polygon points="1260 731.08 1260 753.39 1279 764.48 1298 753.39 1298 731.08 1279 720 1260 731.08"/>
  <polygon points="1530 659.08 1530 681.39 1549 692.48 1568 681.39 1568 659.08 1549 648 1530 659.08"/>
  <polygon points="1631 681.39 1631 659.08 1612 648 1593 659.08 1593 681.39 1612 692.48 1631 681.39"/>
  <polygon points="1109 825.39 1109 803.08 1090 792 1071 803.08 1071 825.39 1090 836.48 1109 825.39"/>
  <polygon points="882 1091.08 882 1113.39 901 1124.48 920 1113.39 920 1091.08 901 1080 882 1091.08"/>
  <polygon points="882 1163.08 882 1185.39 901 1196.48 920 1185.39 920 1163.08 901 1152 882 1163.08"/>
  <polygon points="882 1235.08 882 1257.39 901 1268.48 920 1257.39 920 1235.08 901 1224 882 1235.08"/>
  <polygon points="819 1235.08 819 1257.39 838 1268.48 857 1257.39 857 1235.08 838 1224 819 1235.08"/>
  <polygon points="819 1307.08 819 1329.39 838 1340.48 857 1329.39 857 1307.08 838 1296 819 1307.08"/>
  <polygon points="819 1379.08 819 1401.39 838 1412.48 857 1401.39 857 1379.08 838 1368 819 1379.08"/>
  <polygon points="756 1307.08 756 1329.39 775 1340.48 794 1329.39 794 1307.08 775 1296 756 1307.08"/>
  <polygon points="794 1235.08 775 1224 756 1235.08 756 1257.39 775 1268.48 794 1257.39 794 1235.08"/>
  <polygon points="857 1163.08 838 1152 819 1163.08 819 1185.39 838 1196.48 857 1185.39 857 1163.08"/>
  <polygon points="794 1163.08 775 1152 756 1163.08 756 1185.39 775 1196.48 794 1185.39 794 1163.08"/>
  <polygon points="857 1091.08 838 1080 819 1091.08 819 1113.39 838 1124.48 857 1113.39 857 1091.08"/>
  <polygon points="882 1041.39 901 1052.48 920 1041.39 920 1019.08 901 1008 882 1019.08 882 1041.39"/>
  <polygon points="819 1019.08 819 1041.39 838 1052.48 857 1041.39 857 1019.08 838 1008 819 1019.08"/>
  <polygon points="756 1019.08 756 1041.39 775 1052.48 794 1041.39 794 1019.08 775 1008 756 1019.08"/>
  <polygon points="794 1091.08 775 1080 756 1091.08 756 1113.39 775 1124.48 794 1113.39 794 1091.08"/>
  <polygon points="630 1379.08 630 1401.39 649 1412.48 668 1401.39 668 1379.08 649 1368 630 1379.08"/>
  <polygon points="731 1019.08 712 1008 693 1019.08 693 1041.39 712 1052.48 731 1041.39 731 1019.08"/>
  <polygon points="731 1091.08 712 1080 693 1091.08 693 1113.39 712 1124.48 731 1113.39 731 1091.08"/>
  <polygon points="731 1163.08 712 1152 693 1163.08 693 1185.39 712 1196.48 731 1185.39 731 1163.08"/>
  <polygon points="731 1235.08 712 1224 693 1235.08 693 1257.39 712 1268.48 731 1257.39 731 1235.08"/>
  <polygon points="693 1307.08 693 1329.39 712 1340.48 731 1329.39 731 1307.08 712 1296 693 1307.08"/>
  <polygon points="630 1307.08 630 1329.39 649 1340.48 668 1329.39 668 1307.08 649 1296 630 1307.08"/>
  <polygon points="605 1329.39 605 1307.08 586 1296 567 1307.08 567 1329.39 586 1340.48 605 1329.39"/>
  <polygon points="542 1329.39 542 1307.08 523 1296 504 1307.08 504 1329.39 523 1340.48 542 1329.39"/>
  <polygon points="441 1307.08 441 1329.39 460 1340.48 479 1329.39 479 1307.08 460 1296 441 1307.08"/>
  <polygon points="668 1235.08 649 1224 630 1235.08 630 1257.39 649 1268.48 668 1257.39 668 1235.08"/>
  <polygon points="605 1257.39 605 1235.08 586 1224 567 1235.08 567 1257.39 586 1268.48 605 1257.39"/>
  <polygon points="542 1257.39 542 1235.08 523 1224 504 1235.08 504 1257.39 523 1268.48 542 1257.39"/>
  <polygon points="479 1257.39 479 1235.08 460 1224 441 1235.08 441 1257.39 460 1268.48 479 1257.39"/>
  <polygon points="378 1235.08 378 1257.39 397 1268.48 416 1257.39 416 1235.08 397 1224 378 1235.08"/>
  <polygon points="605 1401.39 605 1379.08 586 1368 567 1379.08 567 1401.39 586 1412.48 605 1401.39"/>
  <polygon points="416 1041.39 416 1019.08 397 1008 378 1019.08 378 1041.39 397 1052.48 416 1041.39"/>
  <polygon points="441 1041.39 460 1052.48 479 1041.39 479 1019.08 460 1008 441 1019.08 441 1041.39"/>
  <polygon points="504 1041.39 523 1052.48 542 1041.39 542 1019.08 523 1008 504 1019.08 504 1041.39"/>
  <polygon points="605 1041.39 605 1019.08 586 1008 567 1019.08 567 1041.39 586 1052.48 605 1041.39"/>
  <polygon points="416 1113.39 416 1091.08 397 1080 378 1091.08 378 1113.39 397 1124.48 416 1113.39"/>
  <polygon points="441 1113.39 460 1124.48 479 1113.39 479 1091.08 460 1080 441 1091.08 441 1113.39"/>
  <polygon points="542 1113.39 542 1091.08 523 1080 504 1091.08 504 1113.39 523 1124.48 542 1113.39"/>
  <polygon points="605 1113.39 605 1091.08 586 1080 567 1091.08 567 1113.39 586 1124.48 605 1113.39"/>
  <polygon points="416 1185.39 416 1163.08 397 1152 378 1163.08 378 1185.39 397 1196.48 416 1185.39"/>
  <polygon points="479 1185.39 479 1163.08 460 1152 441 1163.08 441 1185.39 460 1196.48 479 1185.39"/>
  <polygon points="542 1185.39 542 1163.08 523 1152 504 1163.08 504 1185.39 523 1196.48 542 1185.39"/>
  <polygon points="605 1185.39 605 1163.08 586 1152 567 1163.08 567 1185.39 586 1196.48 605 1185.39"/>
  <polygon points="668 1019.08 649 1008 630 1019.08 630 1041.39 649 1052.48 668 1041.39 668 1019.08"/>
  <polygon points="668 1091.08 649 1080 630 1091.08 630 1113.39 649 1124.48 668 1113.39 668 1091.08"/>
  <polygon points="668 1163.08 649 1152 630 1163.08 630 1185.39 649 1196.48 668 1185.39 668 1163.08"/>
  <polygon points="920 1689.39 920 1667.08 901 1656 882 1667.08 882 1689.39 901 1700.48 920 1689.39"/>
  <polygon points="857 1617.39 857 1595.08 838 1584 819 1595.08 819 1617.39 838 1628.48 857 1617.39"/>
  <polygon points="756 1595.08 756 1617.39 775 1628.48 794 1617.39 794 1595.08 775 1584 756 1595.08"/>
  <polygon points="495 1451.08 495 1473.39 514 1484.48 533 1473.39 533 1451.08 514 1440 495 1451.08"/>
  <polygon points="983 1689.39 983 1667.08 964 1656 945 1667.08 945 1689.39 964 1700.48 983 1689.39"/>
  <polygon points="819 1667.08 819 1689.39 838 1700.48 857 1689.39 857 1667.08 838 1656 819 1667.08"/>
  <polygon points="731 1545.39 731 1523.08 712 1512 693 1523.08 693 1545.39 712 1556.48 731 1545.39"/>
  <polygon points="567 1523.08 567 1545.39 586 1556.48 605 1545.39 605 1523.08 586 1512 567 1523.08"/>
  <polygon points="920 1761.39 920 1739.08 901 1728 882 1739.08 882 1761.39 901 1772.48 920 1761.39"/>
  <polygon points="1046 1689.39 1046 1667.08 1027 1656 1008 1667.08 1008 1689.39 1027 1700.48 1046 1689.39"/>
  <polygon points="693 1595.08 693 1617.39 712 1628.48 731 1617.39 731 1595.08 712 1584 693 1595.08"/>
  <polygon points="630 1523.08 630 1545.39 649 1556.48 668 1545.39 668 1523.08 649 1512 630 1523.08"/>
  <polygon points="504 1379.08 504 1401.39 523 1412.48 542 1401.39 542 1379.08 523 1368 504 1379.08"/>
  <polygon points="605 1473.39 605 1451.08 586 1440 567 1451.08 567 1473.39 586 1484.48 605 1473.39"/>
  <polygon points="630 1451.08 630 1473.39 649 1484.48 668 1473.39 668 1451.08 649 1440 630 1451.08"/>
  <polygon points="1197 1811.08 1197 1833.39 1216 1844.48 1235 1833.39 1235 1811.08 1216 1800 1197 1811.08"/>
  <polygon points="1235 1883.08 1216 1872 1197 1883.08 1197 1905.39 1216 1916.48 1235 1905.39 1235 1883.08"/>
  <polygon points="1197 1955.08 1197 1977.39 1216 1988.48 1235 1977.39 1235 1955.08 1216 1944 1197 1955.08"/>
  <polygon points="1197 2027.08 1197 2049.39 1216 2060.48 1235 2049.39 1235 2027.08 1216 2016 1197 2027.08"/>
  <polygon points="1172 2027.08 1153 2016 1134 2027.08 1134 2049.39 1153 2060.48 1172 2049.39 1172 2027.08"/>
  <polygon points="1109 2027.08 1090 2016 1071 2027.08 1071 2049.39 1090 2060.48 1109 2049.39 1109 2027.08"/>
  <polygon points="1008 2049.39 1027 2060.48 1046 2049.39 1046 2027.08 1027 2016 1008 2027.08 1008 2049.39"/>
  <polygon points="983 2049.39 983 2027.08 964 2016 945 2027.08 945 2049.39 964 2060.48 983 2049.39"/>
  <polygon points="857 1833.39 857 1811.08 838 1800 819 1811.08 819 1833.39 838 1844.48 857 1833.39"/>
  <polygon points="920 1833.39 920 1811.08 901 1800 882 1811.08 882 1833.39 901 1844.48 920 1833.39"/>
  <polygon points="945 1833.39 964 1844.48 983 1833.39 983 1811.08 964 1800 945 1811.08 945 1833.39"/>
  <polygon points="1008 1811.08 1008 1833.39 1027 1844.48 1046 1833.39 1046 1811.08 1027 1800 1008 1811.08"/>
  <polygon points="1071 1833.39 1090 1844.48 1109 1833.39 1109 1811.08 1090 1800 1071 1811.08 1071 1833.39"/>
  <polygon points="920 1905.39 920 1883.08 901 1872 882 1883.08 882 1905.39 901 1916.48 920 1905.39"/>
  <polygon points="983 1905.39 983 1883.08 964 1872 945 1883.08 945 1905.39 964 1916.48 983 1905.39"/>
  <polygon points="1008 1883.08 1008 1905.39 1027 1916.48 1046 1905.39 1046 1883.08 1027 1872 1008 1883.08"/>
  <polygon points="1071 1905.39 1090 1916.48 1109 1905.39 1109 1883.08 1090 1872 1071 1883.08 1071 1905.39"/>
  <polygon points="882 1955.08 882 1977.39 901 1988.48 920 1977.39 920 1955.08 901 1944 882 1955.08"/>
  <polygon points="983 1977.39 983 1955.08 964 1944 945 1955.08 945 1977.39 964 1988.48 983 1977.39"/>
  <polygon points="1046 1977.39 1046 1955.08 1027 1944 1008 1955.08 1008 1977.39 1027 1988.48 1046 1977.39"/>
  <polygon points="1109 1955.08 1090 1944 1071 1955.08 1071 1977.39 1090 1988.48 1109 1977.39 1109 1955.08"/>
  <polygon points="1134 1833.39 1153 1844.48 1172 1833.39 1172 1811.08 1153 1800 1134 1811.08 1134 1833.39"/>
  <polygon points="1134 1905.39 1153 1916.48 1172 1905.39 1172 1883.08 1153 1872 1134 1883.08 1134 1905.39"/>
  <polygon points="1172 1955.08 1153 1944 1134 1955.08 1134 1977.39 1153 1988.48 1172 1977.39 1172 1955.08"/>
  <polygon points="819 1883.08 819 1905.39 838 1916.48 857 1905.39 857 1883.08 838 1872 819 1883.08"/>
  <polygon points="1235 1761.39 1235 1739.08 1216 1728 1197 1739.08 1197 1761.39 1216 1772.48 1235 1761.39"/>
  <polygon points="945 1761.39 964 1772.48 983 1761.39 983 1739.08 964 1728 945 1739.08 945 1761.39"/>
  <polygon points="1008 1739.08 1008 1761.39 1027 1772.48 1046 1761.39 1046 1739.08 1027 1728 1008 1739.08"/>
  <polygon points="1109 1761.39 1109 1739.08 1090 1728 1071 1739.08 1071 1761.39 1090 1772.48 1109 1761.39"/>
  <polygon points="1172 1761.39 1172 1739.08 1153 1728 1134 1739.08 1134 1761.39 1153 1772.48 1172 1761.39"/>
  <polygon points="1323 1883.08 1323 1905.39 1342 1916.48 1361 1905.39 1361 1883.08 1342 1872 1323 1883.08"/>
  <polygon points="1323 1955.08 1323 1977.39 1342 1988.48 1361 1977.39 1361 1955.08 1342 1944 1323 1955.08"/>
  <polygon points="1260 1955.08 1260 1977.39 1279 1988.48 1298 1977.39 1298 1955.08 1279 1944 1260 1955.08"/>
  <polygon points="1298 1833.39 1298 1811.08 1279 1800 1260 1811.08 1260 1833.39 1279 1844.48 1298 1833.39"/>
  <polygon points="1260 1883.08 1260 1905.39 1279 1916.48 1298 1905.39 1298 1883.08 1279 1872 1260 1883.08"/>
  <polygon points="1197 2099.08 1197 2121.39 1216 2132.48 1235 2121.39 1235 2099.08 1216 2088 1197 2099.08"/>
  <polygon points="1071 2243.08 1071 2265.39 1090 2276.48 1109 2265.39 1109 2243.08 1090 2232 1071 2243.08"/>
  <polygon points="1008 2243.08 1008 2265.39 1027 2276.48 1046 2265.39 1046 2243.08 1027 2232 1008 2243.08"/>
  <polygon points="983 2265.39 983 2243.08 964 2232 945 2243.08 945 2265.39 964 2276.48 983 2265.39"/>
  <polygon points="983 2121.39 983 2099.08 964 2088 945 2099.08 945 2121.39 964 2132.48 983 2121.39"/>
  <polygon points="1046 2099.08 1027 2088 1008 2099.08 1008 2121.39 1027 2132.48 1046 2121.39 1046 2099.08"/>
  <polygon points="1109 2099.08 1090 2088 1071 2099.08 1071 2121.39 1090 2132.48 1109 2121.39 1109 2099.08"/>
  <polygon points="983 2193.39 983 2171.08 964 2160 945 2171.08 945 2193.39 964 2204.48 983 2193.39"/>
  <polygon points="1046 2171.08 1027 2160 1008 2171.08 1008 2193.39 1027 2204.48 1046 2193.39 1046 2171.08"/>
  <polygon points="1071 2171.08 1071 2193.39 1090 2204.48 1109 2193.39 1109 2171.08 1090 2160 1071 2171.08"/>
  <polygon points="1134 2099.08 1134 2121.39 1153 2132.48 1172 2121.39 1172 2099.08 1153 2088 1134 2099.08"/>
  <polygon points="1134 2171.08 1134 2193.39 1153 2204.48 1172 2193.39 1172 2171.08 1153 2160 1134 2171.08"/>
  <polygon points="1008 2315.08 1008 2337.39 1027 2348.48 1046 2337.39 1046 2315.08 1027 2304 1008 2315.08"/>
  <polygon points="983 2337.39 983 2315.08 964 2304 945 2315.08 945 2337.39 964 2348.48 983 2337.39"/>
  <polygon points="945 2387.08 945 2409.39 964 2420.48 983 2409.39 983 2387.08 964 2376 945 2387.08"/>
  <polygon points="2142 1451.08 2142 1473.39 2161 1484.48 2180 1473.39 2180 1451.08 2161 1440 2142 1451.08"/>
  <polygon points="2142 1523.08 2142 1545.39 2161 1556.48 2180 1545.39 2180 1523.08 2161 1512 2142 1523.08"/>
  <polygon points="2180 1595.08 2161 1584 2142 1595.08 2142 1617.39 2161 1628.48 2180 1617.39 2180 1595.08"/>
  <polygon points="2180 1667.08 2161 1656 2142 1667.08 2142 1689.39 2161 1700.48 2180 1689.39 2180 1667.08"/>
  <polygon points="2117 1667.08 2098 1656 2079 1667.08 2079 1689.39 2098 1700.48 2117 1689.39 2117 1667.08"/>
  <polygon points="2016 1689.39 2035 1700.48 2054 1689.39 2054 1667.08 2035 1656 2016 1667.08 2016 1689.39"/>
  <polygon points="1953 1689.39 1972 1700.48 1991 1689.39 1991 1667.08 1972 1656 1953 1667.08 1953 1689.39"/>
  <polygon points="1928 1689.39 1928 1667.08 1909 1656 1890 1667.08 1890 1689.39 1909 1700.48 1928 1689.39"/>
  <polygon points="1890 1473.39 1909 1484.48 1928 1473.39 1928 1451.08 1909 1440 1890 1451.08 1890 1473.39"/>
  <polygon points="1953 1473.39 1972 1484.48 1991 1473.39 1991 1451.08 1972 1440 1953 1451.08 1953 1473.39"/>
  <polygon points="2016 1473.39 2035 1484.48 2054 1473.39 2054 1451.08 2035 1440 2016 1451.08 2016 1473.39"/>
  <polygon points="1890 1545.39 1909 1556.48 1928 1545.39 1928 1523.08 1909 1512 1890 1523.08 1890 1545.39"/>
  <polygon points="1953 1545.39 1972 1556.48 1991 1545.39 1991 1523.08 1972 1512 1953 1523.08 1953 1545.39"/>
  <polygon points="2016 1545.39 2035 1556.48 2054 1545.39 2054 1523.08 2035 1512 2016 1523.08 2016 1545.39"/>
  <polygon points="1890 1617.39 1909 1628.48 1928 1617.39 1928 1595.08 1909 1584 1890 1595.08 1890 1617.39"/>
  <polygon points="1953 1617.39 1972 1628.48 1991 1617.39 1991 1595.08 1972 1584 1953 1595.08 1953 1617.39"/>
  <polygon points="2016 1617.39 2035 1628.48 2054 1617.39 2054 1595.08 2035 1584 2016 1595.08 2016 1617.39"/>
  <polygon points="2079 1451.08 2079 1473.39 2098 1484.48 2117 1473.39 2117 1451.08 2098 1440 2079 1451.08"/>
  <polygon points="2079 1523.08 2079 1545.39 2098 1556.48 2117 1545.39 2117 1523.08 2098 1512 2079 1523.08"/>
  <polygon points="2079 1595.08 2079 1617.39 2098 1628.48 2117 1617.39 2117 1595.08 2098 1584 2079 1595.08"/>
  <polygon points="2180 1401.39 2180 1379.08 2161 1368 2142 1379.08 2142 1401.39 2161 1412.48 2180 1401.39"/>
  <polygon points="1890 1401.39 1909 1412.48 1928 1401.39 1928 1379.08 1909 1368 1890 1379.08 1890 1401.39"/>
  <polygon points="1953 1401.39 1972 1412.48 1991 1401.39 1991 1379.08 1972 1368 1953 1379.08 1953 1401.39"/>
  <polygon points="2016 1401.39 2035 1412.48 2054 1401.39 2054 1379.08 2035 1368 2016 1379.08 2016 1401.39"/>
  <polygon points="2079 1379.08 2079 1401.39 2098 1412.48 2117 1401.39 2117 1379.08 2098 1368 2079 1379.08"/>
  <polygon points="2306 1545.39 2306 1523.08 2287 1512 2268 1523.08 2268 1545.39 2287 1556.48 2306 1545.39"/>
  <polygon points="2268 1595.08 2268 1617.39 2287 1628.48 2306 1617.39 2306 1595.08 2287 1584 2268 1595.08"/>
  <polygon points="2243 1595.08 2224 1584 2205 1595.08 2205 1617.39 2224 1628.48 2243 1617.39 2243 1595.08"/>
  <polygon points="2243 1473.39 2243 1451.08 2224 1440 2205 1451.08 2205 1473.39 2224 1484.48 2243 1473.39"/>
  <polygon points="2205 1523.08 2205 1545.39 2224 1556.48 2243 1545.39 2243 1523.08 2224 1512 2205 1523.08"/>
  <polygon points="2142 1739.08 2142 1761.39 2161 1772.48 2180 1761.39 2180 1739.08 2161 1728 2142 1739.08"/>
  <polygon points="1386 1883.08 1386 1905.39 1405 1916.48 1424 1905.39 1424 1883.08 1405 1872 1386 1883.08"/>
  <polygon points="1953 1761.39 1972 1772.48 1991 1761.39 1991 1739.08 1972 1728 1953 1739.08 1953 1761.39"/>
  <polygon points="2054 1739.08 2035 1728 2016 1739.08 2016 1761.39 2035 1772.48 2054 1761.39 2054 1739.08"/>
  <polygon points="1991 1833.39 1991 1811.08 1972 1800 1953 1811.08 1953 1833.39 1972 1844.48 1991 1833.39"/>
  <polygon points="2054 1811.08 2035 1800 2016 1811.08 2016 1833.39 2035 1844.48 2054 1833.39 2054 1811.08"/>
  <polygon points="2117 1739.08 2098 1728 2079 1739.08 2079 1761.39 2098 1772.48 2117 1761.39 2117 1739.08"/>
  <polygon points="2117 1811.08 2098 1800 2079 1811.08 2079 1833.39 2098 1844.48 2117 1833.39 2117 1811.08"/>
  <polygon points="2117 1883.08 2098 1872 2079 1883.08 2079 1905.39 2098 1916.48 2117 1905.39 2117 1883.08"/>
  <polygon points="1991 1905.39 1991 1883.08 1972 1872 1953 1883.08 1953 1905.39 1972 1916.48 1991 1905.39"/>
  <polygon points="2142 1811.08 2142 1833.39 2161 1844.48 2180 1833.39 2180 1811.08 2161 1800 2142 1811.08"/>
  <polygon points="2205 1667.08 2205 1689.39 2224 1700.48 2243 1689.39 2243 1667.08 2224 1656 2205 1667.08"/>
  <polygon points="2268 1667.08 2268 1689.39 2287 1700.48 2306 1689.39 2306 1667.08 2287 1656 2268 1667.08"/>
  <polygon points="2054 1883.08 2035 1872 2016 1883.08 2016 1905.39 2035 1916.48 2054 1905.39 2054 1883.08"/>
  <polygon points="2205 1739.08 2205 1761.39 2224 1772.48 2243 1761.39 2243 1739.08 2224 1728 2205 1739.08"/>
  <polygon points="1865 1689.39 1865 1667.08 1846 1656 1827 1667.08 1827 1689.39 1846 1700.48 1865 1689.39"/>
  <polygon points="1764 1667.08 1764 1689.39 1783 1700.48 1802 1689.39 1802 1667.08 1783 1656 1764 1667.08"/>
  <polygon points="1701 1667.08 1701 1689.39 1720 1700.48 1739 1689.39 1739 1667.08 1720 1656 1701 1667.08"/>
  <polygon points="1638 1667.08 1638 1689.39 1657 1700.48 1676 1689.39 1676 1667.08 1657 1656 1638 1667.08"/>
  <polygon points="1638 1451.08 1638 1473.39 1657 1484.48 1676 1473.39 1676 1451.08 1657 1440 1638 1451.08"/>
  <polygon points="1701 1473.39 1720 1484.48 1739 1473.39 1739 1451.08 1720 1440 1701 1451.08 1701 1473.39"/>
  <polygon points="1764 1473.39 1783 1484.48 1802 1473.39 1802 1451.08 1783 1440 1764 1451.08 1764 1473.39"/>
  <polygon points="1676 1545.39 1676 1523.08 1657 1512 1638 1523.08 1638 1545.39 1657 1556.48 1676 1545.39"/>
  <polygon points="1739 1523.08 1720 1512 1701 1523.08 1701 1545.39 1720 1556.48 1739 1545.39 1739 1523.08"/>
  <polygon points="1802 1523.08 1783 1512 1764 1523.08 1764 1545.39 1783 1556.48 1802 1545.39 1802 1523.08"/>
  <polygon points="1676 1617.39 1676 1595.08 1657 1584 1638 1595.08 1638 1617.39 1657 1628.48 1676 1617.39"/>
  <polygon points="1739 1595.08 1720 1584 1701 1595.08 1701 1617.39 1720 1628.48 1739 1617.39 1739 1595.08"/>
  <polygon points="1802 1595.08 1783 1584 1764 1595.08 1764 1617.39 1783 1628.48 1802 1617.39 1802 1595.08"/>
  <polygon points="1827 1473.39 1846 1484.48 1865 1473.39 1865 1451.08 1846 1440 1827 1451.08 1827 1473.39"/>
  <polygon points="1827 1545.39 1846 1556.48 1865 1545.39 1865 1523.08 1846 1512 1827 1523.08 1827 1545.39"/>
  <polygon points="1865 1617.39 1865 1595.08 1846 1584 1827 1595.08 1827 1617.39 1846 1628.48 1865 1617.39"/>
  <polygon points="1638 1379.08 1638 1401.39 1657 1412.48 1676 1401.39 1676 1379.08 1657 1368 1638 1379.08"/>
  <polygon points="1701 1401.39 1720 1412.48 1739 1401.39 1739 1379.08 1720 1368 1701 1379.08 1701 1401.39"/>
  <polygon points="1764 1401.39 1783 1412.48 1802 1401.39 1802 1379.08 1783 1368 1764 1379.08 1764 1401.39"/>
  <polygon points="1827 1401.39 1846 1412.48 1865 1401.39 1865 1379.08 1846 1368 1827 1379.08 1827 1401.39"/>
  <polygon points="1575 1473.39 1594 1484.48 1613 1473.39 1613 1451.08 1594 1440 1575 1451.08 1575 1473.39"/>
  <polygon points="1613 1545.39 1613 1523.08 1594 1512 1575 1523.08 1575 1545.39 1594 1556.48 1613 1545.39"/>
  <polygon points="1575 1595.08 1575 1617.39 1594 1628.48 1613 1617.39 1613 1595.08 1594 1584 1575 1595.08"/>
  <polygon points="1928 1329.39 1928 1307.08 1909 1296 1890 1307.08 1890 1329.39 1909 1340.48 1928 1329.39"/>
  <polygon points="1991 1329.39 1991 1307.08 1972 1296 1953 1307.08 1953 1329.39 1972 1340.48 1991 1329.39"/>
  <polygon points="2054 1329.39 2054 1307.08 2035 1296 2016 1307.08 2016 1329.39 2035 1340.48 2054 1329.39"/>
  <polygon points="2117 1329.39 2117 1307.08 2098 1296 2079 1307.08 2079 1329.39 2098 1340.48 2117 1329.39"/>
  <polygon points="1739 1329.39 1739 1307.08 1720 1296 1701 1307.08 1701 1329.39 1720 1340.48 1739 1329.39"/>
  <polygon points="1802 1329.39 1802 1307.08 1783 1296 1764 1307.08 1764 1329.39 1783 1340.48 1802 1329.39"/>
  <polygon points="1865 1329.39 1865 1307.08 1846 1296 1827 1307.08 1827 1329.39 1846 1340.48 1865 1329.39"/>
  <polygon points="1890 1761.39 1909 1772.48 1928 1761.39 1928 1739.08 1909 1728 1890 1739.08 1890 1761.39"/>
  <polygon points="1928 1833.39 1928 1811.08 1909 1800 1890 1811.08 1890 1833.39 1909 1844.48 1928 1833.39"/>
  <polygon points="1928 1905.39 1928 1883.08 1909 1872 1890 1883.08 1890 1905.39 1909 1916.48 1928 1905.39"/>
  <polygon points="2142 1955.08 2142 1977.39 2161 1988.48 2180 1977.39 2180 1955.08 2161 1944 2142 1955.08"/>
  <polygon points="1991 1977.39 1991 1955.08 1972 1944 1953 1955.08 1953 1977.39 1972 1988.48 1991 1977.39"/>
  <polygon points="2054 1955.08 2035 1944 2016 1955.08 2016 1977.39 2035 1988.48 2054 1977.39 2054 1955.08"/>
  <polygon points="1991 2049.39 1991 2027.08 1972 2016 1953 2027.08 1953 2049.39 1972 2060.48 1991 2049.39"/>
  <polygon points="2054 2027.08 2035 2016 2016 2027.08 2016 2049.39 2035 2060.48 2054 2049.39 2054 2027.08"/>
  <polygon points="2117 1955.08 2098 1944 2079 1955.08 2079 1977.39 2098 1988.48 2117 1977.39 2117 1955.08"/>
  <polygon points="2079 2027.08 2079 2049.39 2098 2060.48 2117 2049.39 2117 2027.08 2098 2016 2079 2027.08"/>
  <polygon points="2079 2099.08 2079 2121.39 2098 2132.48 2117 2121.39 2117 2099.08 2098 2088 2079 2099.08"/>
  <polygon points="2142 2027.08 2142 2049.39 2161 2060.48 2180 2049.39 2180 2027.08 2161 2016 2142 2027.08"/>
  <polygon points="2016 2099.08 2016 2121.39 2035 2132.48 2054 2121.39 2054 2099.08 2035 2088 2016 2099.08"/>
  <polygon points="2142 1883.08 2142 1905.39 2161 1916.48 2180 1905.39 2180 1883.08 2161 1872 2142 1883.08"/>
  <polygon points="2268 1883.08 2268 1905.39 2287 1916.48 2306 1905.39 2306 1883.08 2287 1872 2268 1883.08"/>
  <polygon points="2268 1955.08 2268 1977.39 2287 1988.48 2306 1977.39 2306 1955.08 2287 1944 2268 1955.08"/>
  <polygon points="1638 1307.08 1638 1329.39 1657 1340.48 1676 1329.39 1676 1307.08 1657 1296 1638 1307.08"/>
  <polygon points="1613 1401.39 1613 1379.08 1594 1368 1575 1379.08 1575 1401.39 1594 1412.48 1613 1401.39"/>
  <polygon points="1638 1235.08 1638 1257.39 1657 1268.48 1676 1257.39 1676 1235.08 1657 1224 1638 1235.08"/>
  <polygon points="1638 1163.08 1638 1185.39 1657 1196.48 1676 1185.39 1676 1163.08 1657 1152 1638 1163.08"/>
  <polygon points="1701 1163.08 1701 1185.39 1720 1196.48 1739 1185.39 1739 1163.08 1720 1152 1701 1163.08"/>
  <polygon points="1676 1113.39 1676 1091.08 1657 1080 1638 1091.08 1638 1113.39 1657 1124.48 1676 1113.39"/>
  <polygon points="1701 1091.08 1701 1113.39 1720 1124.48 1739 1113.39 1739 1091.08 1720 1080 1701 1091.08"/>
  <polygon points="1764 1091.08 1764 1113.39 1783 1124.48 1802 1113.39 1802 1091.08 1783 1080 1764 1091.08"/>
  <polygon points="1827 1091.08 1827 1113.39 1846 1124.48 1865 1113.39 1865 1091.08 1846 1080 1827 1091.08"/>
  <polygon points="1802 1041.39 1802 1019.08 1783 1008 1764 1019.08 1764 1041.39 1783 1052.48 1802 1041.39"/>
  <polygon points="1865 1041.39 1865 1019.08 1846 1008 1827 1019.08 1827 1041.39 1846 1052.48 1865 1041.39"/>
  <polygon points="1764 875.08 1764 897.39 1783 908.48 1802 897.39 1802 875.08 1783 864 1764 875.08"/>
  <polygon points="1802 825.39 1802 803.08 1783 792 1764 803.08 1764 825.39 1783 836.48 1802 825.39"/>
  <polygon points="1739 825.39 1739 803.08 1720 792 1701 803.08 1701 825.39 1720 836.48 1739 825.39"/>
  <polygon points="2205 1041.39 2224 1052.48 2243 1041.39 2243 1019.08 2224 1008 2205 1019.08 2205 1041.39"/>
  <polygon points="1953 1041.39 1972 1052.48 1991 1041.39 1991 1019.08 1972 1008 1953 1019.08 1953 1041.39"/>
  <polygon points="2054 1019.08 2035 1008 2016 1019.08 2016 1041.39 2035 1052.48 2054 1041.39 2054 1019.08"/>
  <polygon points="2117 1019.08 2098 1008 2079 1019.08 2079 1041.39 2098 1052.48 2117 1041.39 2117 1019.08"/>
  <polygon points="2180 1041.39 2180 1019.08 2161 1008 2142 1019.08 2142 1041.39 2161 1052.48 2180 1041.39"/>
  <polygon points="2205 947.08 2205 969.39 2224 980.48 2243 969.39 2243 947.08 2224 936 2205 947.08"/>
  <polygon points="1991 969.39 1991 947.08 1972 936 1953 947.08 1953 969.39 1972 980.48 1991 969.39"/>
  <polygon points="2054 969.39 2054 947.08 2035 936 2016 947.08 2016 969.39 2035 980.48 2054 969.39"/>
  <polygon points="2117 969.39 2117 947.08 2098 936 2079 947.08 2079 969.39 2098 980.48 2117 969.39"/>
  <polygon points="2142 969.39 2161 980.48 2180 969.39 2180 947.08 2161 936 2142 947.08 2142 969.39"/>
  <polygon points="2268 1041.39 2287 1052.48 2306 1041.39 2306 1019.08 2287 1008 2268 1019.08 2268 1041.39"/>
  <polygon points="1928 1041.39 1928 1019.08 1909 1008 1890 1019.08 1890 1041.39 1909 1052.48 1928 1041.39"/>
  <polygon points="1928 969.39 1928 947.08 1909 936 1890 947.08 1890 969.39 1909 980.48 1928 969.39"/>
  <polygon points="1991 897.39 1991 875.08 1972 864 1953 875.08 1953 897.39 1972 908.48 1991 897.39"/>
  <polygon points="2117 897.39 2117 875.08 2098 864 2079 875.08 2079 897.39 2098 908.48 2117 897.39"/>
  <polygon points="2180 897.39 2180 875.08 2161 864 2142 875.08 2142 897.39 2161 908.48 2180 897.39"/>
  <polygon points="2243 825.39 2243 803.08 2224 792 2205 803.08 2205 825.39 2224 836.48 2243 825.39"/>
  <polygon points="2180 825.39 2180 803.08 2161 792 2142 803.08 2142 825.39 2161 836.48 2180 825.39"/>
  <polygon points="1953 731.08 1953 753.39 1972 764.48 1991 753.39 1991 731.08 1972 720 1953 731.08"/>
  <polygon points="2016 731.08 2016 753.39 2035 764.48 2054 753.39 2054 731.08 2035 720 2016 731.08"/>
  <polygon points="2180 753.39 2180 731.08 2161 720 2142 731.08 2142 753.39 2161 764.48 2180 753.39"/>
  <polygon points="1890 731.08 1890 753.39 1909 764.48 1928 753.39 1928 731.08 1909 720 1890 731.08"/>
  <polygon points="2243 681.39 2243 659.08 2224 648 2205 659.08 2205 681.39 2224 692.48 2243 681.39"/>
  <polygon points="1991 659.08 1972 648 1953 659.08 1953 681.39 1972 692.48 1991 681.39 1991 659.08"/>
  <polygon points="2016 659.08 2016 681.39 2035 692.48 2054 681.39 2054 659.08 2035 648 2016 659.08"/>
  <polygon points="2079 659.08 2079 681.39 2098 692.48 2117 681.39 2117 659.08 2098 648 2079 659.08"/>
  <polygon points="2180 681.39 2180 659.08 2161 648 2142 659.08 2142 681.39 2161 692.48 2180 681.39"/>
  <polygon points="1928 681.39 1928 659.08 1909 648 1890 659.08 1890 681.39 1909 692.48 1928 681.39"/>
  <polygon points="1991 609.39 1991 587.08 1972 576 1953 587.08 1953 609.39 1972 620.48 1991 609.39"/>
  <polygon points="2016 587.08 2016 609.39 2035 620.48 2054 609.39 2054 587.08 2035 576 2016 587.08"/>
  <polygon points="2117 609.39 2117 587.08 2098 576 2079 587.08 2079 609.39 2098 620.48 2117 609.39"/>
  <polygon points="2180 609.39 2180 587.08 2161 576 2142 587.08 2142 609.39 2161 620.48 2180 609.39"/>
  <polygon points="1928 609.39 1928 587.08 1909 576 1890 587.08 1890 609.39 1909 620.48 1928 609.39"/>
  <polygon points="2306 1113.39 2306 1091.08 2287 1080 2268 1091.08 2268 1113.39 2287 1124.48 2306 1113.39"/>
  <polygon points="2180 1113.39 2180 1091.08 2161 1080 2142 1091.08 2142 1113.39 2161 1124.48 2180 1113.39"/>
  <polygon points="2243 1113.39 2243 1091.08 2224 1080 2205 1091.08 2205 1113.39 2224 1124.48 2243 1113.39"/>
  <polygon points="1953 1163.08 1953 1185.39 1972 1196.48 1991 1185.39 1991 1163.08 1972 1152 1953 1163.08"/>
  <polygon points="2016 1163.08 2016 1185.39 2035 1196.48 2054 1185.39 2054 1163.08 2035 1152 2016 1163.08"/>
  <polygon points="2369 1091.08 2350 1080 2331 1091.08 2331 1113.39 2350 1124.48 2369 1113.39 2369 1091.08"/>
  <polygon points="1991 1113.39 1991 1091.08 1972 1080 1953 1091.08 1953 1113.39 1972 1124.48 1991 1113.39"/>
  <polygon points="2306 1185.39 2306 1163.08 2287 1152 2268 1163.08 2268 1185.39 2287 1196.48 2306 1185.39"/>
  <polygon points="2180 1185.39 2180 1163.08 2161 1152 2142 1163.08 2142 1185.39 2161 1196.48 2180 1185.39"/>
  <polygon points="2243 1185.39 2243 1163.08 2224 1152 2205 1163.08 2205 1185.39 2224 1196.48 2243 1185.39"/>
  <polygon points="2369 1163.08 2350 1152 2331 1163.08 2331 1185.39 2350 1196.48 2369 1185.39 2369 1163.08"/>
  <polygon points="2306 1257.39 2306 1235.08 2287 1224 2268 1235.08 2268 1257.39 2287 1268.48 2306 1257.39"/>
  <polygon points="2142 1235.08 2142 1257.39 2161 1268.48 2180 1257.39 2180 1235.08 2161 1224 2142 1235.08"/>
  <polygon points="2243 1257.39 2243 1235.08 2224 1224 2205 1235.08 2205 1257.39 2224 1268.48 2243 1257.39"/>
  <polygon points="2369 1235.08 2350 1224 2331 1235.08 2331 1257.39 2350 1268.48 2369 1257.39 2369 1235.08"/>
  <polygon points="2016 1091.08 2016 1113.39 2035 1124.48 2054 1113.39 2054 1091.08 2035 1080 2016 1091.08"/>
  <polygon points="2079 1091.08 2079 1113.39 2098 1124.48 2117 1113.39 2117 1091.08 2098 1080 2079 1091.08"/>
  <polygon points="1890 1091.08 1890 1113.39 1909 1124.48 1928 1113.39 1928 1091.08 1909 1080 1890 1091.08"/>
  <polygon points="2369 1307.08 2350 1296 2331 1307.08 2331 1329.39 2350 1340.48 2369 1329.39 2369 1307.08"/>
  <polygon points="2306 1329.39 2306 1307.08 2287 1296 2268 1307.08 2268 1329.39 2287 1340.48 2306 1329.39"/>
  <polygon points="2394 1307.08 2394 1329.39 2413 1340.48 2432 1329.39 2432 1307.08 2413 1296 2394 1307.08"/>
  <polygon points="2331 1379.08 2331 1401.39 2350 1412.48 2369 1401.39 2369 1379.08 2350 1368 2331 1379.08"/>
  <polygon points="2268 1379.08 2268 1401.39 2287 1412.48 2306 1401.39 2306 1379.08 2287 1368 2268 1379.08"/>
  <polygon points="2394 1379.08 2394 1401.39 2413 1412.48 2432 1401.39 2432 1379.08 2413 1368 2394 1379.08"/>
  <polygon points="2205 1307.08 2205 1329.39 2224 1340.48 2243 1329.39 2243 1307.08 2224 1296 2205 1307.08"/>
  <polygon points="2495 1019.08 2476 1008 2457 1019.08 2457 1041.39 2476 1052.48 2495 1041.39 2495 1019.08"/>
  <polygon points="2432 1019.08 2413 1008 2394 1019.08 2394 1041.39 2413 1052.48 2432 1041.39 2432 1019.08"/>
  <polygon points="2558 1041.39 2558 1019.08 2539 1008 2520 1019.08 2520 1041.39 2539 1052.48 2558 1041.39"/>
  <polygon points="2558 1113.39 2558 1091.08 2539 1080 2520 1091.08 2520 1113.39 2539 1124.48 2558 1113.39"/>
  <polygon points="2432 1091.08 2413 1080 2394 1091.08 2394 1113.39 2413 1124.48 2432 1113.39 2432 1091.08"/>
  <polygon points="2495 1091.08 2476 1080 2457 1091.08 2457 1113.39 2476 1124.48 2495 1113.39 2495 1091.08"/>
  <polygon points="2621 1113.39 2621 1091.08 2602 1080 2583 1091.08 2583 1113.39 2602 1124.48 2621 1113.39"/>
  <polygon points="2558 1185.39 2558 1163.08 2539 1152 2520 1163.08 2520 1185.39 2539 1196.48 2558 1185.39"/>
  <polygon points="2432 1163.08 2413 1152 2394 1163.08 2394 1185.39 2413 1196.48 2432 1185.39 2432 1163.08"/>
  <polygon points="2495 1163.08 2476 1152 2457 1163.08 2457 1185.39 2476 1196.48 2495 1185.39 2495 1163.08"/>
  <polygon points="2621 1185.39 2621 1163.08 2602 1152 2583 1163.08 2583 1185.39 2602 1196.48 2621 1185.39"/>
  <polygon points="2558 1257.39 2558 1235.08 2539 1224 2520 1235.08 2520 1257.39 2539 1268.48 2558 1257.39"/>
  <polygon points="2394 1235.08 2394 1257.39 2413 1268.48 2432 1257.39 2432 1235.08 2413 1224 2394 1235.08"/>
  <polygon points="2457 1235.08 2457 1257.39 2476 1268.48 2495 1257.39 2495 1235.08 2476 1224 2457 1235.08"/>
  <polygon points="2621 1257.39 2621 1235.08 2602 1224 2583 1235.08 2583 1257.39 2602 1268.48 2621 1257.39"/>
  <polygon points="2621 1329.39 2621 1307.08 2602 1296 2583 1307.08 2583 1329.39 2602 1340.48 2621 1329.39"/>
  <polygon points="2520 1307.08 2520 1329.39 2539 1340.48 2558 1329.39 2558 1307.08 2539 1296 2520 1307.08"/>
  <polygon points="2684 1329.39 2684 1307.08 2665 1296 2646 1307.08 2646 1329.39 2665 1340.48 2684 1329.39"/>
  <polygon points="2684 1401.39 2684 1379.08 2665 1368 2646 1379.08 2646 1401.39 2665 1412.48 2684 1401.39"/>
  <polygon points="2583 1379.08 2583 1401.39 2602 1412.48 2621 1401.39 2621 1379.08 2602 1368 2583 1379.08"/>
  <polygon points="2709 1379.08 2709 1401.39 2728 1412.48 2747 1401.39 2747 1379.08 2728 1368 2709 1379.08"/>
  <polygon points="2646 1451.08 2646 1473.39 2665 1484.48 2684 1473.39 2684 1451.08 2665 1440 2646 1451.08"/>
  <polygon points="2709 1451.08 2709 1473.39 2728 1484.48 2747 1473.39 2747 1451.08 2728 1440 2709 1451.08"/>
  <polygon points="2709 1523.08 2709 1545.39 2728 1556.48 2747 1545.39 2747 1523.08 2728 1512 2709 1523.08"/>
  <polygon points="2747 1091.08 2728 1080 2709 1091.08 2709 1113.39 2728 1124.48 2747 1113.39 2747 1091.08"/>
  <polygon points="2684 1113.39 2684 1091.08 2665 1080 2646 1091.08 2646 1113.39 2665 1124.48 2684 1113.39"/>
  <polygon points="2810 1091.08 2791 1080 2772 1091.08 2772 1113.39 2791 1124.48 2810 1113.39 2810 1091.08"/>
  <polygon points="2747 1163.08 2728 1152 2709 1163.08 2709 1185.39 2728 1196.48 2747 1185.39 2747 1163.08"/>
  <polygon points="2684 1185.39 2684 1163.08 2665 1152 2646 1163.08 2646 1185.39 2665 1196.48 2684 1185.39"/>
  <polygon points="2810 1163.08 2791 1152 2772 1163.08 2772 1185.39 2791 1196.48 2810 1185.39 2810 1163.08"/>
  <polygon points="2747 1235.08 2728 1224 2709 1235.08 2709 1257.39 2728 1268.48 2747 1257.39 2747 1235.08"/>
  <polygon points="2810 1235.08 2791 1224 2772 1235.08 2772 1257.39 2791 1268.48 2810 1257.39 2810 1235.08"/>
  <polygon points="2999 1091.08 2980 1080 2961 1091.08 2961 1113.39 2980 1124.48 2999 1113.39 2999 1091.08"/>
  <polygon points="2873 1091.08 2854 1080 2835 1091.08 2835 1113.39 2854 1124.48 2873 1113.39 2873 1091.08"/>
  <polygon points="2936 1113.39 2936 1091.08 2917 1080 2898 1091.08 2898 1113.39 2917 1124.48 2936 1113.39"/>
  <polygon points="3062 1091.08 3043 1080 3024 1091.08 3024 1113.39 3043 1124.48 3062 1113.39 3062 1091.08"/>
  <polygon points="2999 1163.08 2980 1152 2961 1163.08 2961 1185.39 2980 1196.48 2999 1185.39 2999 1163.08"/>
  <polygon points="2873 1163.08 2854 1152 2835 1163.08 2835 1185.39 2854 1196.48 2873 1185.39 2873 1163.08"/>
  <polygon points="2936 1185.39 2936 1163.08 2917 1152 2898 1163.08 2898 1185.39 2917 1196.48 2936 1185.39"/>
  <polygon points="3062 1163.08 3043 1152 3024 1163.08 3024 1185.39 3043 1196.48 3062 1185.39 3062 1163.08"/>
  <polygon points="2999 1235.08 2980 1224 2961 1235.08 2961 1257.39 2980 1268.48 2999 1257.39 2999 1235.08"/>
  <polygon points="2873 1235.08 2854 1224 2835 1235.08 2835 1257.39 2854 1268.48 2873 1257.39 2873 1235.08"/>
  <polygon points="2936 1257.39 2936 1235.08 2917 1224 2898 1235.08 2898 1257.39 2917 1268.48 2936 1257.39"/>
  <polygon points="3062 1235.08 3043 1224 3024 1235.08 3024 1257.39 3043 1268.48 3062 1257.39 3062 1235.08"/>
  <polygon points="2684 1257.39 2684 1235.08 2665 1224 2646 1235.08 2646 1257.39 2665 1268.48 2684 1257.39"/>
  <polygon points="2747 1307.08 2728 1296 2709 1307.08 2709 1329.39 2728 1340.48 2747 1329.39 2747 1307.08"/>
  <polygon points="2810 1307.08 2791 1296 2772 1307.08 2772 1329.39 2791 1340.48 2810 1329.39 2810 1307.08"/>
  <polygon points="2999 1307.08 2980 1296 2961 1307.08 2961 1329.39 2980 1340.48 2999 1329.39 2999 1307.08"/>
  <polygon points="2873 1307.08 2854 1296 2835 1307.08 2835 1329.39 2854 1340.48 2873 1329.39 2873 1307.08"/>
  <polygon points="2936 1329.39 2936 1307.08 2917 1296 2898 1307.08 2898 1329.39 2917 1340.48 2936 1329.39"/>
  <polygon points="3024 1307.08 3024 1329.39 3043 1340.48 3062 1329.39 3062 1307.08 3043 1296 3024 1307.08"/>
  <polygon points="2936 1401.39 2936 1379.08 2917 1368 2898 1379.08 2898 1401.39 2917 1412.48 2936 1401.39"/>
  <polygon points="3024 1379.08 3024 1401.39 3043 1412.48 3062 1401.39 3062 1379.08 3043 1368 3024 1379.08"/>
  <polygon points="2835 1379.08 2835 1401.39 2854 1412.48 2873 1401.39 2873 1379.08 2854 1368 2835 1379.08"/>
  <polygon points="2772 1379.08 2772 1401.39 2791 1412.48 2810 1401.39 2810 1379.08 2791 1368 2772 1379.08"/>
  <polygon points="2999 1379.08 2980 1368 2961 1379.08 2961 1401.39 2980 1412.48 2999 1401.39 2999 1379.08"/>
  <polygon points="2898 1451.08 2898 1473.39 2917 1484.48 2936 1473.39 2936 1451.08 2917 1440 2898 1451.08"/>
  <polygon points="2961 1451.08 2961 1473.39 2980 1484.48 2999 1473.39 2999 1451.08 2980 1440 2961 1451.08"/>
  <polygon points="3024 1451.08 3024 1473.39 3043 1484.48 3062 1473.39 3062 1451.08 3043 1440 3024 1451.08"/>
  <polygon points="3024 1523.08 3024 1545.39 3043 1556.48 3062 1545.39 3062 1523.08 3043 1512 3024 1523.08"/>
  <polygon points="3125 1689.39 3125 1667.08 3106 1656 3087 1667.08 3087 1689.39 3106 1700.48 3125 1689.39"/>
  <polygon points="3024 1739.08 3024 1761.39 3043 1772.48 3062 1761.39 3062 1739.08 3043 1728 3024 1739.08"/>
  <polygon points="3188 1761.39 3188 1739.08 3169 1728 3150 1739.08 3150 1761.39 3169 1772.48 3188 1761.39"/>
  <polygon points="3125 1761.39 3125 1739.08 3106 1728 3087 1739.08 3087 1761.39 3106 1772.48 3125 1761.39"/>
  <polygon points="3440 1761.39 3440 1739.08 3421 1728 3402 1739.08 3402 1761.39 3421 1772.48 3440 1761.39"/>
  <polygon points="3314 1761.39 3314 1739.08 3295 1728 3276 1739.08 3276 1761.39 3295 1772.48 3314 1761.39"/>
  <polygon points="3503 1761.39 3503 1739.08 3484 1728 3465 1739.08 3465 1761.39 3484 1772.48 3503 1761.39"/>
  <polygon points="3188 2049.39 3188 2027.08 3169 2016 3150 2027.08 3150 2049.39 3169 2060.48 3188 2049.39"/>
  <polygon points="3251 2049.39 3251 2027.08 3232 2016 3213 2027.08 3213 2049.39 3232 2060.48 3251 2049.39"/>
  <polygon points="3314 1905.39 3314 1883.08 3295 1872 3276 1883.08 3276 1905.39 3295 1916.48 3314 1905.39"/>
  <polygon points="3377 1905.39 3377 1883.08 3358 1872 3339 1883.08 3339 1905.39 3358 1916.48 3377 1905.39"/>
  <polygon points="3314 1977.39 3314 1955.08 3295 1944 3276 1955.08 3276 1977.39 3295 1988.48 3314 1977.39"/>
  <polygon points="3339 1977.39 3358 1988.48 3377 1977.39 3377 1955.08 3358 1944 3339 1955.08 3339 1977.39"/>
  <polygon points="3566 1905.39 3566 1883.08 3547 1872 3528 1883.08 3528 1905.39 3547 1916.48 3566 1905.39"/>
  <polygon points="3440 1905.39 3440 1883.08 3421 1872 3402 1883.08 3402 1905.39 3421 1916.48 3440 1905.39"/>
  <polygon points="3566 1977.39 3566 1955.08 3547 1944 3528 1955.08 3528 1977.39 3547 1988.48 3566 1977.39"/>
  <polygon points="3402 1955.08 3402 1977.39 3421 1988.48 3440 1977.39 3440 1955.08 3421 1944 3402 1955.08"/>
  <polygon points="3503 1977.39 3503 1955.08 3484 1944 3465 1955.08 3465 1977.39 3484 1988.48 3503 1977.39"/>
  <polygon points="3591 1955.08 3591 1977.39 3610 1988.48 3629 1977.39 3629 1955.08 3610 1944 3591 1955.08"/>
  <polygon points="3251 1977.39 3251 1955.08 3232 1944 3213 1955.08 3213 1977.39 3232 1988.48 3251 1977.39"/>
  <polygon points="3314 2027.08 3295 2016 3276 2027.08 3276 2049.39 3295 2060.48 3314 2049.39 3314 2027.08"/>
  <polygon points="3377 2027.08 3358 2016 3339 2027.08 3339 2049.39 3358 2060.48 3377 2049.39 3377 2027.08"/>
  <polygon points="3528 2049.39 3547 2060.48 3566 2049.39 3566 2027.08 3547 2016 3528 2027.08 3528 2049.39"/>
  <polygon points="3440 2027.08 3421 2016 3402 2027.08 3402 2049.39 3421 2060.48 3440 2049.39 3440 2027.08"/>
  <polygon points="3465 2049.39 3484 2060.48 3503 2049.39 3503 2027.08 3484 2016 3465 2027.08 3465 2049.39"/>
  <polygon points="3591 2027.08 3591 2049.39 3610 2060.48 3629 2049.39 3629 2027.08 3610 2016 3591 2027.08"/>
  <polygon points="3150 2099.08 3150 2121.39 3169 2132.48 3188 2121.39 3188 2099.08 3169 2088 3150 2099.08"/>
  <polygon points="3213 2171.08 3213 2193.39 3232 2204.48 3251 2193.39 3251 2171.08 3232 2160 3213 2171.08"/>
  <polygon points="3276 2099.08 3276 2121.39 3295 2132.48 3314 2121.39 3314 2099.08 3295 2088 3276 2099.08"/>
  <polygon points="3339 2099.08 3339 2121.39 3358 2132.48 3377 2121.39 3377 2099.08 3358 2088 3339 2099.08"/>
  <polygon points="3566 2099.08 3547 2088 3528 2099.08 3528 2121.39 3547 2132.48 3566 2121.39 3566 2099.08"/>
  <polygon points="3402 2099.08 3402 2121.39 3421 2132.48 3440 2121.39 3440 2099.08 3421 2088 3402 2099.08"/>
  <polygon points="3503 2121.39 3503 2099.08 3484 2088 3465 2099.08 3465 2121.39 3484 2132.48 3503 2121.39"/>
  <polygon points="3591 2099.08 3591 2121.39 3610 2132.48 3629 2121.39 3629 2099.08 3610 2088 3591 2099.08"/>
  <polygon points="3251 2121.39 3251 2099.08 3232 2088 3213 2099.08 3213 2121.39 3232 2132.48 3251 2121.39"/>
  <polygon points="3276 2171.08 3276 2193.39 3295 2204.48 3314 2193.39 3314 2171.08 3295 2160 3276 2171.08"/>
  <polygon points="3528 2171.08 3528 2193.39 3547 2204.48 3566 2193.39 3566 2171.08 3547 2160 3528 2171.08"/>
  <polygon points="3465 2171.08 3465 2193.39 3484 2204.48 3503 2193.39 3503 2171.08 3484 2160 3465 2171.08"/>
  <polygon points="3566 1761.39 3566 1739.08 3547 1728 3528 1739.08 3528 1761.39 3547 1772.48 3566 1761.39"/>
  <polygon points="2961 1667.08 2961 1689.39 2980 1700.48 2999 1689.39 2999 1667.08 2980 1656 2961 1667.08"/>
  <polygon points="3125 1091.08 3106 1080 3087 1091.08 3087 1113.39 3106 1124.48 3125 1113.39 3125 1091.08"/>
  <polygon points="3125 1163.08 3106 1152 3087 1163.08 3087 1185.39 3106 1196.48 3125 1185.39 3125 1163.08"/>
  <polygon points="3087 1235.08 3087 1257.39 3106 1268.48 3125 1257.39 3125 1235.08 3106 1224 3087 1235.08"/>
  <polygon points="3087 1307.08 3087 1329.39 3106 1340.48 3125 1329.39 3125 1307.08 3106 1296 3087 1307.08"/>
  <polygon points="3150 875.08 3150 897.39 3169 908.48 3188 897.39 3188 875.08 3169 864 3150 875.08"/>
  <polygon points="3188 947.08 3169 936 3150 947.08 3150 969.39 3169 980.48 3188 969.39 3188 947.08"/>
  <polygon points="3188 1019.08 3169 1008 3150 1019.08 3150 1041.39 3169 1052.48 3188 1041.39 3188 1019.08"/>
  <polygon points="3188 1091.08 3169 1080 3150 1091.08 3150 1113.39 3169 1124.48 3188 1113.39 3188 1091.08"/>
  <polygon points="3213 803.08 3213 825.39 3232 836.48 3251 825.39 3251 803.08 3232 792 3213 803.08"/>
  <polygon points="3213 875.08 3213 897.39 3232 908.48 3251 897.39 3251 875.08 3232 864 3213 875.08"/>
  <polygon points="3251 947.08 3232 936 3213 947.08 3213 969.39 3232 980.48 3251 969.39 3251 947.08"/>
  <polygon points="3213 537.39 3232 548.48 3251 537.39 3251 515.08 3232 504 3213 515.08 3213 537.39"/>
  <polygon points="3251 587.08 3232 576 3213 587.08 3213 609.39 3232 620.48 3251 609.39 3251 587.08"/>
  <polygon points="3251 659.08 3232 648 3213 659.08 3213 681.39 3232 692.48 3251 681.39 3251 659.08"/>
  <polygon points="3213 731.08 3213 753.39 3232 764.48 3251 753.39 3251 731.08 3232 720 3213 731.08"/>
  <polygon points="3276 537.39 3295 548.48 3314 537.39 3314 515.08 3295 504 3276 515.08 3276 537.39"/>
  <polygon points="3314 587.08 3295 576 3276 587.08 3276 609.39 3295 620.48 3314 609.39 3314 587.08"/>
  <polygon points="3314 659.08 3295 648 3276 659.08 3276 681.39 3295 692.48 3314 681.39 3314 659.08"/>
  <polygon points="3276 731.08 3276 753.39 3295 764.48 3314 753.39 3314 731.08 3295 720 3276 731.08"/>
  <polygon points="3339 515.08 3339 537.39 3358 548.48 3377 537.39 3377 515.08 3358 504 3339 515.08"/>
  <polygon points="3377 587.08 3358 576 3339 587.08 3339 609.39 3358 620.48 3377 609.39 3377 587.08"/>
  <polygon points="3377 659.08 3358 648 3339 659.08 3339 681.39 3358 692.48 3377 681.39 3377 659.08"/>
  <polygon points="3339 731.08 3339 753.39 3358 764.48 3377 753.39 3377 731.08 3358 720 3339 731.08"/>
  <polygon points="3440 537.39 3440 515.08 3421 504 3402 515.08 3402 537.39 3421 548.48 3440 537.39"/>
  <polygon points="3402 609.39 3421 620.48 3440 609.39 3440 587.08 3421 576 3402 587.08 3402 609.39"/>
  <polygon points="3440 659.08 3421 648 3402 659.08 3402 681.39 3421 692.48 3440 681.39 3440 659.08"/>
  <polygon points="3402 731.08 3402 753.39 3421 764.48 3440 753.39 3440 731.08 3421 720 3402 731.08"/>
  <polygon points="3503 537.39 3503 515.08 3484 504 3465 515.08 3465 537.39 3484 548.48 3503 537.39"/>
  <polygon points="3465 587.08 3465 609.39 3484 620.48 3503 609.39 3503 587.08 3484 576 3465 587.08"/>
  <polygon points="3465 659.08 3465 681.39 3484 692.48 3503 681.39 3503 659.08 3484 648 3465 659.08"/>
  <polygon points="3465 731.08 3465 753.39 3484 764.48 3503 753.39 3503 731.08 3484 720 3465 731.08"/>
  <polygon points="3465 803.08 3465 825.39 3484 836.48 3503 825.39 3503 803.08 3484 792 3465 803.08"/>
  <polygon points="3465 875.08 3465 897.39 3484 908.48 3503 897.39 3503 875.08 3484 864 3465 875.08"/>
  <polygon points="3314 897.39 3314 875.08 3295 864 3276 875.08 3276 897.39 3295 908.48 3314 897.39"/>
  <polygon points="3377 1113.39 3377 1091.08 3358 1080 3339 1091.08 3339 1113.39 3358 1124.48 3377 1113.39"/>
  <polygon points="3377 1185.39 3377 1163.08 3358 1152 3339 1163.08 3339 1185.39 3358 1196.48 3377 1185.39"/>
  <polygon points="3566 537.39 3566 515.08 3547 504 3528 515.08 3528 537.39 3547 548.48 3566 537.39"/>
  <polygon points="3528 587.08 3528 609.39 3547 620.48 3566 609.39 3566 587.08 3547 576 3528 587.08"/>
  <polygon points="3629 537.39 3629 515.08 3610 504 3591 515.08 3591 537.39 3610 548.48 3629 537.39"/>
  <polygon points="3629 609.39 3629 587.08 3610 576 3591 587.08 3591 609.39 3610 620.48 3629 609.39"/>
  <polygon points="3692 537.39 3692 515.08 3673 504 3654 515.08 3654 537.39 3673 548.48 3692 537.39"/>
  <polygon points="3654 587.08 3654 609.39 3673 620.48 3692 609.39 3692 587.08 3673 576 3654 587.08"/>
  <polygon points="3755 537.39 3755 515.08 3736 504 3717 515.08 3717 537.39 3736 548.48 3755 537.39"/>
  <polygon points="3717 587.08 3717 609.39 3736 620.48 3755 609.39 3755 587.08 3736 576 3717 587.08"/>
  <polygon points="3780 587.08 3780 609.39 3799 620.48 3818 609.39 3818 587.08 3799 576 3780 587.08"/>
  <polygon points="3591 659.08 3591 681.39 3610 692.48 3629 681.39 3629 659.08 3610 648 3591 659.08"/>
  <polygon points="3654 659.08 3654 681.39 3673 692.48 3692 681.39 3692 659.08 3673 648 3654 659.08"/>
  <polygon points="2583 825.39 2602 836.48 2621 825.39 2621 803.08 2602 792 2583 803.08 2583 825.39"/>
  <polygon points="2583 897.39 2602 908.48 2621 897.39 2621 875.08 2602 864 2583 875.08 2583 897.39"/>
  <polygon points="2621 969.39 2621 947.08 2602 936 2583 947.08 2583 969.39 2602 980.48 2621 969.39"/>
  <polygon points="2621 1041.39 2621 1019.08 2602 1008 2583 1019.08 2583 1041.39 2602 1052.48 2621 1041.39"/>
  <polygon points="2684 1041.39 2684 1019.08 2665 1008 2646 1019.08 2646 1041.39 2665 1052.48 2684 1041.39"/>
  <polygon points="2709 825.39 2728 836.48 2747 825.39 2747 803.08 2728 792 2709 803.08 2709 825.39"/>
  <polygon points="2646 825.39 2665 836.48 2684 825.39 2684 803.08 2665 792 2646 803.08 2646 825.39"/>
  <polygon points="2772 803.08 2772 825.39 2791 836.48 2810 825.39 2810 803.08 2791 792 2772 803.08"/>
  <polygon points="2747 875.08 2728 864 2709 875.08 2709 897.39 2728 908.48 2747 897.39 2747 875.08"/>
  <polygon points="2646 897.39 2665 908.48 2684 897.39 2684 875.08 2665 864 2646 875.08 2646 897.39"/>
  <polygon points="2810 875.08 2791 864 2772 875.08 2772 897.39 2791 908.48 2810 897.39 2810 875.08"/>
  <polygon points="2747 947.08 2728 936 2709 947.08 2709 969.39 2728 980.48 2747 969.39 2747 947.08"/>
  <polygon points="2810 947.08 2791 936 2772 947.08 2772 969.39 2791 980.48 2810 969.39 2810 947.08"/>
  <polygon points="2961 825.39 2980 836.48 2999 825.39 2999 803.08 2980 792 2961 803.08 2961 825.39"/>
  <polygon points="2835 825.39 2854 836.48 2873 825.39 2873 803.08 2854 792 2835 803.08 2835 825.39"/>
  <polygon points="2898 825.39 2917 836.48 2936 825.39 2936 803.08 2917 792 2898 803.08 2898 825.39"/>
  <polygon points="3062 803.08 3043 792 3024 803.08 3024 825.39 3043 836.48 3062 825.39 3062 803.08"/>
  <polygon points="2961 897.39 2980 908.48 2999 897.39 2999 875.08 2980 864 2961 875.08 2961 897.39"/>
  <polygon points="2835 897.39 2854 908.48 2873 897.39 2873 875.08 2854 864 2835 875.08 2835 897.39"/>
  <polygon points="2898 897.39 2917 908.48 2936 897.39 2936 875.08 2917 864 2898 875.08 2898 897.39"/>
  <polygon points="3062 875.08 3043 864 3024 875.08 3024 897.39 3043 908.48 3062 897.39 3062 875.08"/>
  <polygon points="2999 947.08 2980 936 2961 947.08 2961 969.39 2980 980.48 2999 969.39 2999 947.08"/>
  <polygon points="2873 947.08 2854 936 2835 947.08 2835 969.39 2854 980.48 2873 969.39 2873 947.08"/>
  <polygon points="2936 969.39 2936 947.08 2917 936 2898 947.08 2898 969.39 2917 980.48 2936 969.39"/>
  <polygon points="3062 947.08 3043 936 3024 947.08 3024 969.39 3043 980.48 3062 969.39 3062 947.08"/>
  <polygon points="2646 969.39 2665 980.48 2684 969.39 2684 947.08 2665 936 2646 947.08 2646 969.39"/>
  <polygon points="2747 1019.08 2728 1008 2709 1019.08 2709 1041.39 2728 1052.48 2747 1041.39 2747 1019.08"/>
  <polygon points="2810 1019.08 2791 1008 2772 1019.08 2772 1041.39 2791 1052.48 2810 1041.39 2810 1019.08"/>
  <polygon points="2999 1019.08 2980 1008 2961 1019.08 2961 1041.39 2980 1052.48 2999 1041.39 2999 1019.08"/>
  <polygon points="2873 1019.08 2854 1008 2835 1019.08 2835 1041.39 2854 1052.48 2873 1041.39 2873 1019.08"/>
  <polygon points="2936 1041.39 2936 1019.08 2917 1008 2898 1019.08 2898 1041.39 2917 1052.48 2936 1041.39"/>
  <polygon points="3062 1019.08 3043 1008 3024 1019.08 3024 1041.39 3043 1052.48 3062 1041.39 3062 1019.08"/>
  <polygon points="3125 803.08 3106 792 3087 803.08 3087 825.39 3106 836.48 3125 825.39 3125 803.08"/>
  <polygon points="3087 875.08 3087 897.39 3106 908.48 3125 897.39 3125 875.08 3106 864 3087 875.08"/>
  <polygon points="3125 947.08 3106 936 3087 947.08 3087 969.39 3106 980.48 3125 969.39 3125 947.08"/>
  <polygon points="3125 1019.08 3106 1008 3087 1019.08 3087 1041.39 3106 1052.48 3125 1041.39 3125 1019.08"/>
  <polygon points="2621 537.39 2621 515.08 2602 504 2583 515.08 2583 537.39 2602 548.48 2621 537.39"/>
  <polygon points="2583 609.39 2602 620.48 2621 609.39 2621 587.08 2602 576 2583 587.08 2583 609.39"/>
  <polygon points="2583 681.39 2602 692.48 2621 681.39 2621 659.08 2602 648 2583 659.08 2583 681.39"/>
  <polygon points="2583 753.39 2602 764.48 2621 753.39 2621 731.08 2602 720 2583 731.08 2583 753.39"/>
  <polygon points="2646 753.39 2665 764.48 2684 753.39 2684 731.08 2665 720 2646 731.08 2646 753.39"/>
  <polygon points="2709 537.39 2728 548.48 2747 537.39 2747 515.08 2728 504 2709 515.08 2709 537.39"/>
  <polygon points="2684 537.39 2684 515.08 2665 504 2646 515.08 2646 537.39 2665 548.48 2684 537.39"/>
  <polygon points="2772 515.08 2772 537.39 2791 548.48 2810 537.39 2810 515.08 2791 504 2772 515.08"/>
  <polygon points="2709 609.39 2728 620.48 2747 609.39 2747 587.08 2728 576 2709 587.08 2709 609.39"/>
  <polygon points="2646 609.39 2665 620.48 2684 609.39 2684 587.08 2665 576 2646 587.08 2646 609.39"/>
  <polygon points="2772 587.08 2772 609.39 2791 620.48 2810 609.39 2810 587.08 2791 576 2772 587.08"/>
  <polygon points="2709 681.39 2728 692.48 2747 681.39 2747 659.08 2728 648 2709 659.08 2709 681.39"/>
  <polygon points="2772 659.08 2772 681.39 2791 692.48 2810 681.39 2810 659.08 2791 648 2772 659.08"/>
  <polygon points="2961 537.39 2980 548.48 2999 537.39 2999 515.08 2980 504 2961 515.08 2961 537.39"/>
  <polygon points="2835 537.39 2854 548.48 2873 537.39 2873 515.08 2854 504 2835 515.08 2835 537.39"/>
  <polygon points="2898 537.39 2917 548.48 2936 537.39 2936 515.08 2917 504 2898 515.08 2898 537.39"/>
  <polygon points="3024 515.08 3024 537.39 3043 548.48 3062 537.39 3062 515.08 3043 504 3024 515.08"/>
  <polygon points="2961 609.39 2980 620.48 2999 609.39 2999 587.08 2980 576 2961 587.08 2961 609.39"/>
  <polygon points="2835 609.39 2854 620.48 2873 609.39 2873 587.08 2854 576 2835 587.08 2835 609.39"/>
  <polygon points="2898 609.39 2917 620.48 2936 609.39 2936 587.08 2917 576 2898 587.08 2898 609.39"/>
  <polygon points="3024 587.08 3024 609.39 3043 620.48 3062 609.39 3062 587.08 3043 576 3024 587.08"/>
  <polygon points="2961 681.39 2980 692.48 2999 681.39 2999 659.08 2980 648 2961 659.08 2961 681.39"/>
  <polygon points="2835 681.39 2854 692.48 2873 681.39 2873 659.08 2854 648 2835 659.08 2835 681.39"/>
  <polygon points="2898 681.39 2917 692.48 2936 681.39 2936 659.08 2917 648 2898 659.08 2898 681.39"/>
  <polygon points="3024 659.08 3024 681.39 3043 692.48 3062 681.39 3062 659.08 3043 648 3024 659.08"/>
  <polygon points="2646 681.39 2665 692.48 2684 681.39 2684 659.08 2665 648 2646 659.08 2646 681.39"/>
  <polygon points="2709 753.39 2728 764.48 2747 753.39 2747 731.08 2728 720 2709 731.08 2709 753.39"/>
  <polygon points="2772 731.08 2772 753.39 2791 764.48 2810 753.39 2810 731.08 2791 720 2772 731.08"/>
  <polygon points="2961 753.39 2980 764.48 2999 753.39 2999 731.08 2980 720 2961 731.08 2961 753.39"/>
  <polygon points="2835 753.39 2854 764.48 2873 753.39 2873 731.08 2854 720 2835 731.08 2835 753.39"/>
  <polygon points="2898 753.39 2917 764.48 2936 753.39 2936 731.08 2917 720 2898 731.08 2898 753.39"/>
  <polygon points="3024 731.08 3024 753.39 3043 764.48 3062 753.39 3062 731.08 3043 720 3024 731.08"/>
  <polygon points="3087 537.39 3106 548.48 3125 537.39 3125 515.08 3106 504 3087 515.08 3087 537.39"/>
  <polygon points="3087 609.39 3106 620.48 3125 609.39 3125 587.08 3106 576 3087 587.08 3087 609.39"/>
  <polygon points="3087 681.39 3106 692.48 3125 681.39 3125 659.08 3106 648 3087 659.08 3087 681.39"/>
  <polygon points="3125 731.08 3106 720 3087 731.08 3087 753.39 3106 764.48 3125 753.39 3125 731.08"/>
  <polygon points="3188 803.08 3169 792 3150 803.08 3150 825.39 3169 836.48 3188 825.39 3188 803.08"/>
  <polygon points="3150 537.39 3169 548.48 3188 537.39 3188 515.08 3169 504 3150 515.08 3150 537.39"/>
  <polygon points="3150 609.39 3169 620.48 3188 609.39 3188 587.08 3169 576 3150 587.08 3150 609.39"/>
  <polygon points="3188 659.08 3169 648 3150 659.08 3150 681.39 3169 692.48 3188 681.39 3188 659.08"/>
  <polygon points="3188 731.08 3169 720 3150 731.08 3150 753.39 3169 764.48 3188 753.39 3188 731.08"/>
  <polygon points="2268 825.39 2287 836.48 2306 825.39 2306 803.08 2287 792 2268 803.08 2268 825.39"/>
  <polygon points="2268 897.39 2287 908.48 2306 897.39 2306 875.08 2287 864 2268 875.08 2268 897.39"/>
  <polygon points="2268 969.39 2287 980.48 2306 969.39 2306 947.08 2287 936 2268 947.08 2268 969.39"/>
  <polygon points="2394 825.39 2413 836.48 2432 825.39 2432 803.08 2413 792 2394 803.08 2394 825.39"/>
  <polygon points="2331 825.39 2350 836.48 2369 825.39 2369 803.08 2350 792 2331 803.08 2331 825.39"/>
  <polygon points="2457 825.39 2476 836.48 2495 825.39 2495 803.08 2476 792 2457 803.08 2457 825.39"/>
  <polygon points="2432 875.08 2413 864 2394 875.08 2394 897.39 2413 908.48 2432 897.39 2432 875.08"/>
  <polygon points="2331 897.39 2350 908.48 2369 897.39 2369 875.08 2350 864 2331 875.08 2331 897.39"/>
  <polygon points="2495 875.08 2476 864 2457 875.08 2457 897.39 2476 908.48 2495 897.39 2495 875.08"/>
  <polygon points="2432 947.08 2413 936 2394 947.08 2394 969.39 2413 980.48 2432 969.39 2432 947.08"/>
  <polygon points="2495 947.08 2476 936 2457 947.08 2457 969.39 2476 980.48 2495 969.39 2495 947.08"/>
  <polygon points="2520 803.08 2520 825.39 2539 836.48 2558 825.39 2558 803.08 2539 792 2520 803.08"/>
  <polygon points="2558 897.39 2558 875.08 2539 864 2520 875.08 2520 897.39 2539 908.48 2558 897.39"/>
  <polygon points="2558 969.39 2558 947.08 2539 936 2520 947.08 2520 969.39 2539 980.48 2558 969.39"/>
  <polygon points="2331 969.39 2350 980.48 2369 969.39 2369 947.08 2350 936 2331 947.08 2331 969.39"/>
  <polygon points="2495 465.39 2495 443.08 2476 432 2457 443.08 2457 465.39 2476 476.48 2495 465.39"/>
  <polygon points="2306 609.39 2306 587.08 2287 576 2268 587.08 2268 609.39 2287 620.48 2306 609.39"/>
  <polygon points="2306 681.39 2306 659.08 2287 648 2268 659.08 2268 681.39 2287 692.48 2306 681.39"/>
  <polygon points="2268 753.39 2287 764.48 2306 753.39 2306 731.08 2287 720 2268 731.08 2268 753.39"/>
  <polygon points="2331 753.39 2350 764.48 2369 753.39 2369 731.08 2350 720 2331 731.08 2331 753.39"/>
  <polygon points="2432 537.39 2432 515.08 2413 504 2394 515.08 2394 537.39 2413 548.48 2432 537.39"/>
  <polygon points="2369 537.39 2369 515.08 2350 504 2331 515.08 2331 537.39 2350 548.48 2369 537.39"/>
  <polygon points="2495 537.39 2495 515.08 2476 504 2457 515.08 2457 537.39 2476 548.48 2495 537.39"/>
  <polygon points="2394 609.39 2413 620.48 2432 609.39 2432 587.08 2413 576 2394 587.08 2394 609.39"/>
  <polygon points="2369 609.39 2369 587.08 2350 576 2331 587.08 2331 609.39 2350 620.48 2369 609.39"/>
  <polygon points="2457 609.39 2476 620.48 2495 609.39 2495 587.08 2476 576 2457 587.08 2457 609.39"/>
  <polygon points="2394 681.39 2413 692.48 2432 681.39 2432 659.08 2413 648 2394 659.08 2394 681.39"/>
  <polygon points="2457 681.39 2476 692.48 2495 681.39 2495 659.08 2476 648 2457 659.08 2457 681.39"/>
  <polygon points="2520 515.08 2520 537.39 2539 548.48 2558 537.39 2558 515.08 2539 504 2520 515.08"/>
  <polygon points="2520 587.08 2520 609.39 2539 620.48 2558 609.39 2558 587.08 2539 576 2520 587.08"/>
  <polygon points="2520 659.08 2520 681.39 2539 692.48 2558 681.39 2558 659.08 2539 648 2520 659.08"/>
  <polygon points="2331 681.39 2350 692.48 2369 681.39 2369 659.08 2350 648 2331 659.08 2331 681.39"/>
  <polygon points="2394 753.39 2413 764.48 2432 753.39 2432 731.08 2413 720 2394 731.08 2394 753.39"/>
  <polygon points="2457 753.39 2476 764.48 2495 753.39 2495 731.08 2476 720 2457 731.08 2457 753.39"/>
  <polygon points="2520 731.08 2520 753.39 2539 764.48 2558 753.39 2558 731.08 2539 720 2520 731.08"/>
  <polygon points="2558 465.39 2558 443.08 2539 432 2520 443.08 2520 465.39 2539 476.48 2558 465.39"/>
  <polygon points="3188 465.39 3188 443.08 3169 432 3150 443.08 3150 465.39 3169 476.48 3188 465.39"/>
  <polygon points="3251 465.39 3251 443.08 3232 432 3213 443.08 3213 465.39 3232 476.48 3251 465.39"/>
  <polygon points="3314 465.39 3314 443.08 3295 432 3276 443.08 3276 465.39 3295 476.48 3314 465.39"/>
  <polygon points="3377 465.39 3377 443.08 3358 432 3339 443.08 3339 465.39 3358 476.48 3377 465.39"/>
  <polygon points="2684 465.39 2684 443.08 2665 432 2646 443.08 2646 465.39 2665 476.48 2684 465.39"/>
  <polygon points="2709 465.39 2728 476.48 2747 465.39 2747 443.08 2728 432 2709 443.08 2709 465.39"/>
  <polygon points="2936 465.39 2936 443.08 2917 432 2898 443.08 2898 465.39 2917 476.48 2936 465.39"/>
  <polygon points="2772 443.08 2772 465.39 2791 476.48 2810 465.39 2810 443.08 2791 432 2772 443.08"/>
  <polygon points="2873 465.39 2873 443.08 2854 432 2835 443.08 2835 465.39 2854 476.48 2873 465.39"/>
  <polygon points="2999 465.39 2999 443.08 2980 432 2961 443.08 2961 465.39 2980 476.48 2999 465.39"/>
  <polygon points="3024 443.08 3024 465.39 3043 476.48 3062 465.39 3062 443.08 3043 432 3024 443.08"/>
  <polygon points="3125 465.39 3125 443.08 3106 432 3087 443.08 3087 465.39 3106 476.48 3125 465.39"/>
  <polygon points="2684 393.39 2684 371.08 2665 360 2646 371.08 2646 393.39 2665 404.48 2684 393.39"/>
  <polygon points="2747 393.39 2747 371.08 2728 360 2709 371.08 2709 393.39 2728 404.48 2747 393.39"/>
  <polygon points="2810 393.39 2810 371.08 2791 360 2772 371.08 2772 393.39 2791 404.48 2810 393.39"/>
  <polygon points="2999 393.39 2999 371.08 2980 360 2961 371.08 2961 393.39 2980 404.48 2999 393.39"/>
  <polygon points="3062 393.39 3062 371.08 3043 360 3024 371.08 3024 393.39 3043 404.48 3062 393.39"/>
  <polygon points="2810 321.39 2810 299.08 2791 288 2772 299.08 2772 321.39 2791 332.48 2810 321.39"/>
  <polygon points="3188 321.39 3188 299.08 3169 288 3150 299.08 3150 321.39 3169 332.48 3188 321.39"/>
  <polygon points="3251 321.39 3251 299.08 3232 288 3213 299.08 3213 321.39 3232 332.48 3251 321.39"/>
  <polygon points="3314 321.39 3314 299.08 3295 288 3276 299.08 3276 321.39 3295 332.48 3314 321.39"/>
  <polygon points="1991 537.39 1991 515.08 1972 504 1953 515.08 1953 537.39 1972 548.48 1991 537.39"/>
  <polygon points="2054 537.39 2054 515.08 2035 504 2016 515.08 2016 537.39 2035 548.48 2054 537.39"/>
  <polygon points="1865 1761.39 1865 1739.08 1846 1728 1827 1739.08 1827 1761.39 1846 1772.48 1865 1761.39"/>
  <polygon points="1865 1833.39 1865 1811.08 1846 1800 1827 1811.08 1827 1833.39 1846 1844.48 1865 1833.39"/>
  <polygon points="1827 1883.08 1827 1905.39 1846 1916.48 1865 1905.39 1865 1883.08 1846 1872 1827 1883.08"/>
  <polygon points="1928 1977.39 1928 1955.08 1909 1944 1890 1955.08 1890 1977.39 1909 1988.48 1928 1977.39"/>
  <polygon points="1890 2027.08 1890 2049.39 1909 2060.48 1928 2049.39 1928 2027.08 1909 2016 1890 2027.08"/>
  <polygon points="1991 2121.39 1991 2099.08 1972 2088 1953 2099.08 1953 2121.39 1972 2132.48 1991 2121.39"/>
  <polygon points="1953 2171.08 1953 2193.39 1972 2204.48 1991 2193.39 1991 2171.08 1972 2160 1953 2171.08"/>
  <polygon points="2016 2171.08 2016 2193.39 2035 2204.48 2054 2193.39 2054 2171.08 2035 2160 2016 2171.08"/>
  <polygon points="1046 177.39 1046 155.08 1027 144 1008 155.08 1008 177.39 1027 188.48 1046 177.39"/>
  <polygon points="983 177.39 983 155.08 964 144 945 155.08 945 177.39 964 188.48 983 177.39"/>
  <polygon points="1046 105.39 1046 83.08 1027 72 1008 83.08 1008 105.39 1027 116.48 1046 105.39"/>
  <polygon points="731 393.39 731 371.08 712 360 693 371.08 693 393.39 712 404.48 731 393.39"/>
  <polygon points="857 321.39 857 299.08 838 288 819 299.08 819 321.39 838 332.48 857 321.39"/>
  <polygon points="794 321.39 794 299.08 775 288 756 299.08 756 321.39 775 332.48 794 321.39"/>
  <polygon points="1008 2387.08 1008 2409.39 1027 2420.48 1046 2409.39 1046 2387.08 1027 2376 1008 2387.08"/>
  <polygon points="945 2459.08 945 2481.39 964 2492.48 983 2481.39 983 2459.08 964 2448 945 2459.08"/>
  <polygon points="3528 2243.08 3528 2265.39 3547 2276.48 3566 2265.39 3566 2243.08 3547 2232 3528 2243.08"/>
  <polygon points="3717 2099.08 3717 2121.39 3736 2132.48 3755 2121.39 3755 2099.08 3736 2088 3717 2099.08"/>
  <polygon points="3591 1667.08 3591 1689.39 3610 1700.48 3629 1689.39 3629 1667.08 3610 1656 3591 1667.08"/>
  <polygon points="3654 1667.08 3654 1689.39 3673 1700.48 3692 1689.39 3692 1667.08 3673 1656 3654 1667.08"/>
  <polygon points="3717 1739.08 3717 1761.39 3736 1772.48 3755 1761.39 3755 1739.08 3736 1728 3717 1739.08"/>
  <polygon points="1550 1473.39 1550 1451.08 1531 1440 1512 1451.08 1512 1473.39 1531 1484.48 1550 1473.39"/>
  <polygon points="1512 1523.08 1512 1545.39 1531 1556.48 1550 1545.39 1550 1523.08 1531 1512 1512 1523.08"/>
  <polygon points="1550 1401.39 1550 1379.08 1531 1368 1512 1379.08 1512 1401.39 1531 1412.48 1550 1401.39"/>
  <polygon points="1613 1329.39 1613 1307.08 1594 1296 1575 1307.08 1575 1329.39 1594 1340.48 1613 1329.39"/>
  <polygon points="1172 897.39 1172 875.08 1153 864 1134 875.08 1134 897.39 1153 908.48 1172 897.39"/>
  <polygon points="3213 1019.08 3213 1041.39 3232 1052.48 3251 1041.39 3251 1019.08 3232 1008 3213 1019.08"/>
  <polygon points="3213 1091.08 3213 1113.39 3232 1124.48 3251 1113.39 3251 1091.08 3232 1080 3213 1091.08"/>
  <polygon points="3150 1163.08 3150 1185.39 3169 1196.48 3188 1185.39 3188 1163.08 3169 1152 3150 1163.08"/>
  <polygon points="3150 1235.08 3150 1257.39 3169 1268.48 3188 1257.39 3188 1235.08 3169 1224 3150 1235.08"/>
  <polygon points="3276 947.08 3276 969.39 3295 980.48 3314 969.39 3314 947.08 3295 936 3276 947.08"/>
  <polygon points="3276 1019.08 3276 1041.39 3295 1052.48 3314 1041.39 3314 1019.08 3295 1008 3276 1019.08"/>
  <polygon points="3213 1163.08 3213 1185.39 3232 1196.48 3251 1185.39 3251 1163.08 3232 1152 3213 1163.08"/>
  <polygon points="3276 1235.08 3276 1257.39 3295 1268.48 3314 1257.39 3314 1235.08 3295 1224 3276 1235.08"/>
  <polygon points="3591 2171.08 3591 2193.39 3610 2204.48 3629 2193.39 3629 2171.08 3610 2160 3591 2171.08"/>
  <polygon points="3717 2171.08 3717 2193.39 3736 2204.48 3755 2193.39 3755 2171.08 3736 2160 3717 2171.08"/>
</svg>