<?xml version="1.0" encoding="UTF-8"?>
<svg id="Layer_1" data-name="Layer 1" xmlns="http://www.w3.org/2000/svg" xmlns:xlink="http://www.w3.org/1999/xlink" viewBox="0 0 823.42 194">
  <defs>
    <radialGradient id="radial-gradient" cx="60.18" cy="69.4" fx="60.18" fy="69.4" r="85.3" gradientTransform="translate(23.86 27.33)" gradientUnits="userSpaceOnUse">
      <stop offset=".1" stop-color="#fff" stop-opacity=".45"/>
      <stop offset=".69" stop-color="#fff" stop-opacity=".27"/>
      <stop offset="1" stop-color="#fff" stop-opacity=".2"/>
    </radialGradient>
    <radialGradient id="radial-gradient-2" cx="59.21" cy="67.46" fx="59.21" fy="67.46" r="72.03" gradientTransform="translate(23.86 27.33)" gradientUnits="userSpaceOnUse">
      <stop offset=".1" stop-color="#fff" stop-opacity=".95"/>
      <stop offset=".21" stop-color="#fff" stop-opacity=".91"/>
      <stop offset=".74" stop-color="#fff" stop-opacity=".72"/>
      <stop offset="1" stop-color="#fff" stop-opacity=".65"/>
    </radialGradient>
    <radialGradient id="radial-gradient-3" cx="59.21" cy="69.4" fx="59.21" fy="69.4" r="85.27" gradientTransform="translate(23.86 27.33)" gradientUnits="userSpaceOnUse">
      <stop offset=".1" stop-color="#fff" stop-opacity=".35"/>
      <stop offset=".63" stop-color="#fff" stop-opacity=".22"/>
      <stop offset="1" stop-color="#fff" stop-opacity=".15"/>
    </radialGradient>
    <radialGradient id="radial-gradient-4" cx="58.24" cy="70.36" fx="58.24" fy="70.36" r="85.14" gradientTransform="translate(23.86 27.33)" gradientUnits="userSpaceOnUse">
      <stop offset=".1" stop-color="#fff" stop-opacity=".95"/>
      <stop offset=".49" stop-color="#fff" stop-opacity=".71"/>
      <stop offset=".83" stop-color="#fff" stop-opacity=".52"/>
      <stop offset="1" stop-color="#fff" stop-opacity=".45"/>
    </radialGradient>
    <radialGradient id="radial-gradient-5" cx="59.21" cy="70.37" fx="59.21" fy="70.37" r="84.98" gradientTransform="translate(23.86 27.33)" gradientUnits="userSpaceOnUse">
      <stop offset=".1" stop-color="#fff"/>
      <stop offset=".52" stop-color="#fff" stop-opacity=".92"/>
      <stop offset="1" stop-color="#fff" stop-opacity=".85"/>
    </radialGradient>
  </defs>
  <g>
    <path d="m252.15,48.62h7.04l63.94,85.49V48.62h7.04v96.76h-7.04l-63.94-85.49v85.49h-7.04V48.62Z" style="fill: #fff;"/>
    <path d="m399.48,55.52v37.18h53.52v6.76h-53.52v39.01h58.31v6.9h-65.49V48.62h65.49v6.9h-58.31Z" style="fill: #fff;"/>
    <path d="m543.42,97.07l36.9,48.31h-8.73l-32.53-42.68-32.68,42.68h-8.73l37.04-48.31-37.04-48.45h8.73l32.68,42.68,32.67-42.68h8.73l-37.04,48.45Z" style="fill: #fff;"/>
    <path d="m645.11,141.08c-5.82-3.43-10.38-8.17-13.66-14.23-3.29-6.06-4.93-12.93-4.93-20.63v-58.45h7.04v58.45c0,6.39,1.34,12.11,4.01,17.18,2.68,5.07,6.41,9.01,11.2,11.83s10.19,4.23,16.2,4.23,11.52-1.41,16.27-4.23c4.74-2.82,8.45-6.76,11.13-11.83,2.68-5.07,4.01-10.8,4.01-17.18v-58.45h7.04v58.45c0,7.7-1.64,14.58-4.93,20.63-3.29,6.06-7.84,10.8-13.66,14.23-5.82,3.43-12.44,5.14-19.86,5.14s-14.04-1.71-19.86-5.14Z" style="fill: #fff;"/>
    <path d="m769.4,142.98c-6.62-2.68-12.37-6.45-17.25-11.34l4.37-5.49c4.41,4.41,9.55,7.86,15.42,10.35,5.87,2.49,12.04,3.73,18.52,3.73,5.16,0,9.69-.85,13.59-2.54,3.9-1.69,6.92-4.04,9.08-7.04,2.16-3,3.24-6.34,3.24-10,0-5.26-2.21-9.48-6.62-12.68-4.41-3.19-11.64-5.96-21.69-8.31-11.08-2.54-19.13-5.7-24.16-9.51-5.02-3.8-7.53-9.04-7.53-15.7,0-5.26,1.36-9.98,4.08-14.15,2.72-4.18,6.48-7.44,11.27-9.79,4.79-2.35,10.19-3.52,16.2-3.52s12.14,1.2,17.82,3.59c5.68,2.39,10.92,5.8,15.7,10.21l-4.37,5.49c-4.13-3.94-8.76-7.02-13.87-9.23-5.12-2.21-10.35-3.31-15.7-3.31-4.6,0-8.73.87-12.39,2.61-3.66,1.74-6.5,4.13-8.52,7.18-2.02,3.05-3.03,6.5-3.03,10.35,0,4.7,2.18,8.45,6.55,11.27,4.37,2.82,11.52,5.45,21.48,7.89,10.99,2.63,19.04,6.01,24.15,10.14,5.12,4.13,7.68,9.77,7.68,16.9,0,5.07-1.36,9.65-4.08,13.73-2.72,4.08-6.57,7.3-11.55,9.65-4.98,2.35-10.8,3.52-17.47,3.52-7.32,0-14.29-1.34-20.91-4.01Z" style="fill: #fff;"/>
  </g>
  <g>
    <polygon points="84 97 168.01 145.5 168.01 145.5 168.01 48.5 84 97" style="fill: url(#radial-gradient);"/>
    <polygon points="84 97 84 0 84 0 0 48.5 84 97" style="fill: url(#radial-gradient-2);"/>
    <polygon points="0 48.5 0 145.49 84 97 84 97 84 97 0 48.5" style="fill: #fff;"/>
    <polygon points="84 97 84 97 84 97 84 97 84 97 84 194 84 194 168.01 145.5 84 97" style="fill: url(#radial-gradient-3);"/>
    <polygon points="84 97 84 97 168.01 48.5 168.01 48.5 84 0 84 97" style="fill: url(#radial-gradient-4);"/>
    <polygon points="84 194 84 97 0 145.49 0 145.49 0 145.5 0 145.5 84 194" style="fill: url(#radial-gradient-5);"/>
  </g>
</svg>