<svg width="41" height="41" viewBox="0 0 41 41" fill="none" xmlns="http://www.w3.org/2000/svg">
<g id="power_off">
<path id="Vector" d="M17.5392 4.84573H14.2059V7.97906L17.5392 11.3124V4.84573ZM27.5392 14.8457V21.3124L30.5392 24.3124L30.8725 23.9791V14.8457C30.8725 13.0124 29.3725 11.5124 27.5392 11.5124V4.84573H24.2059V11.5124H17.7392L21.0725 14.8457H27.5392ZM7.73919 6.24573L5.38919 8.59573L10.8725 14.0791V24.0124L16.7059 29.8457V34.8457H25.0392V29.8457L25.8392 29.0457L33.2892 36.4957L35.6392 34.1457L7.73919 6.24573ZM21.7059 28.4624V31.5124H20.0392V28.4624L14.2059 22.5957V17.4124L23.4892 26.6957L21.7059 28.4624Z" fill="white"/>
</g>
</svg>
